<?xml version="1.0" encoding="UTF-8"?>
<svg id="Layer_2" data-name="Layer 2" xmlns="http://www.w3.org/2000/svg" viewBox="0 0 32 28.68">
  <defs>
    <style>
      .cls-1 {
        fill: #bfa895;
      }

      .cls-1, .cls-2, .cls-3, .cls-4 {
        stroke-width: 0px;
      }

      .cls-2 {
        fill: #c92227;
      }

      .cls-3 {
        fill: #000;
      }

      .cls-4 {
        fill: #fefaed;
      }
    </style>
  </defs>
  <g id="Layer_1-2" data-name="Layer 1">
    <g>
      <path class="cls-4" d="M30.21,16.36c-.15-1.45-.54-2.81-1.21-4.03-.07-.12-.13-.24-.2-.34-.12-.2-.24-.4-.37-.58-.07-.09-.15-.18-.21-.28-.07-.09-.15-.18-.21-.28-.11-.12-.2-.24-.3-.36-.05-.05-.09-.09-.13-.15-.13-.15-.28-.29-.41-.44-.09-.09-.18-.18-.28-.28-.37-.37-.75-.73-1.15-1.05-.18-.15-.36-.29-.54-.42-.18-.13-.37-.26-.55-.4-.17-.11-.33-.21-.5-.3-.45-.26-.91-.5-1.41-.71-.12-.05-.25-.11-.38-.16-.07-.03-.13-.05-.2-.07-.13-.05-.26-.11-.41-.15-.13-.04-.26-.09-.4-.13-.26-.08-.53-.16-.8-.22-.13-.03-.26-.07-.4-.09-.21-.04-.41-.08-.61-.12-.08-.01-.15-.03-.21-.04-.12-.03-.24-.04-.36-.05-.15-.03-.29-.04-.42-.07-.3-.04-.59-.07-.88-.08-.67-.05-1.33-.07-2.02-.05-.15.01-.29.01-.44.03-.44.03-.87.05-1.32.09-.26.04-.53.07-.8.11-.26.04-.53.08-.79.13-.12.03-.25.05-.38.08-.13.03-.26.05-.4.08-.08.03-.17.04-.25.07-.17.04-.34.09-.51.13-.16.05-.33.11-.5.16-.08.03-.16.05-.24.08-.17.07-.33.12-.5.18-.08.04-.16.07-.24.09-.25.11-.49.21-.73.33-.16.08-.3.16-.46.24-.16.09-.3.17-.46.26-.53.33-1.04.69-1.53,1.11-.37.32-.73.63-1.05.96-.13.15-.26.28-.38.41-.07.08-.13.15-.2.21-.12.15-.24.28-.36.42-.87,1.09-1.54,2.31-1.94,3.67-.05.16-.09.32-.13.49-.04.16-.08.33-.11.5-.01.04-.01.07-.03.11-.01.07-.01.13-.03.2-.03.12-.04.22-.05.34-.01.09-.03.18-.03.28-.01.04-.01.07-.01.11-.01.08-.01.16.01.21,0,.01.01.03.01.04l.04.04s.01,0,.01.01c.01,0,.04.01.05.01.04.01.08.01.15,0,.03,0,.05,0,.08-.01h.01c1.19-.25,2.36-.07,3.53.09.08,0,.16.01.24.03.05,0,.11.01.16.03.03,0,.05.01.08.01.05.01.09.03.13.05.04.01.08.03.11.05.01.01.03.01.04.03,0,.01.01.01.03.03.09.09.17.22.17.45,0,.16-.05.28-.17.37-.04.03-.08.04-.12.07-.09.04-.21.07-.36.09-.04,0-.07.01-.11.01h-.08s-.09.01-.16.01h-.08c-.08.01-.16.01-.24.01h-1.41c-.07.01-.12.01-.17.01-.13.01-.28.01-.41.04h-.08c-.26.04-.51.09-.78.17.32.71.75,1.36,1.31,1.91.67-.32,1.33-.62,1.99-.94.08-.04.15-.07.22-.09.03-.01.05-.03.09-.04.01,0,.03-.01.04-.01.03-.01.05-.03.09-.03.01-.01.04-.01.07-.01.08-.03.17-.03.25-.03.07,0,.12.01.17.03.03,0,.04,0,.05.01.03,0,.05.01.08.03.12.05.2.15.24.29.05.15.03.26-.04.37-.01.03-.03.04-.04.05-.01.03-.03.04-.04.05-.03.03-.04.04-.07.07-.03.01-.05.04-.08.05-.08.05-.17.11-.25.16-.59.34-1.21.63-1.77,1.04.45.65,1.13,1.02,1.77,1.41,2.23,1.34,4.71,1.99,7.27,2.28,3.23.37,6.39.01,9.44-1.13,1.52-.58,2.87-1.42,4.17-2.39-.01-.03-.04-.07-.07-.09-.01-.01-.03-.03-.04-.04-.05-.05-.13-.11-.2-.15-.05-.04-.11-.07-.17-.09-.07-.03-.13-.07-.2-.11-.07-.04-.13-.07-.18-.11-.18-.11-.37-.21-.55-.3-.13-.08-.25-.15-.37-.21-.12-.08-.24-.16-.36-.24-.03-.01-.05-.03-.07-.04-.03-.03-.04-.04-.07-.07-.28-.29-.18-.74.22-.92.24-.11.46,0,.67.11.08.05.17.11.26.15.09.05.17.09.25.13.07.04.13.07.21.11.21.11.42.21.65.3.28.13.58.25.87.37.18-.51.67-.79.92-1.25.11-.21.22-.4.18-.65-.3-.08-.62-.12-.94-.15-.05,0-.12-.01-.18-.01-.18-.01-.37-.01-.55-.03-.18,0-.38-.01-.57-.03-.12,0-.25-.01-.37-.01-.13-.01-.25-.03-.38-.05-.17-.01-.34-.03-.51-.07-.08-.01-.15-.04-.21-.09-.01,0-.03-.01-.03-.03-.01,0-.03-.01-.03-.01-.03-.03-.05-.05-.07-.09-.01-.01-.03-.04-.04-.07-.03-.04-.04-.11-.05-.17-.03-.09,0-.17.04-.26.01-.01.01-.03.03-.04.03-.04.07-.07.09-.11.03-.01.04-.03.07-.04.01-.01.04-.03.05-.04.03-.01.05-.03.08-.04.04-.03.09-.05.15-.07.01-.01.04-.01.05-.03.03,0,.05-.01.08-.01.11-.03.2-.05.3-.05.18-.01.37-.04.55-.05.83-.07,1.67-.13,2.51-.07.09,0,.18.01.28.03.07,0,.12.01.17.01.12.03.18.01.22-.01l.03-.03s.03-.12.01-.25ZM7.62,15.8c-.15.32-.37.47-.75.33-.84-.3-1.69-.58-2.53-.88-.25-.09-.51-.18-.78-.15-.2.01-.29-.04-.29-.16v-.04s.01-.05.03-.08c0-.01.01-.03.01-.04.15-.37.3-.74.74-.78.94.08,1.75.4,2.56.76.24.12.49.22.73.34.26.15.46.36.29.69ZM7.59,12.54c-.3.29-.59.59-.84.94-.26.34-.73.44-1.09.24-.07-.04-.12-.08-.16-.12-.08-.07-.12-.13-.15-.2-.01-.03-.01-.04-.01-.05,0-.02-.01-.03-.01-.05v-.03h0s-.01-.05-.01-.07c0-.07.01-.13.03-.2.01-.03.01-.05.03-.08.01-.05.03-.12.05-.17.59-1.56,1.67-2.57,3.36-2.76,1.83-.2,3.27.46,4.17,2.14.01.01.03.04.04.05.01.05.04.09.07.13.07.15.12.3.15.47.04.11.05.21.05.32.01.01.01.04.01.05v.15s0,.04,0,.05,0,.03,0,.05c0,.07-.01.13-.07.18,0,.01-.01.03-.03.04-.04.05-.08.09-.15.11l-.03.03h-.03s-.04.03-.07.03c-.44.09-.88.15-1.17-.29-.22-.34-.45-.67-.75-.94-1-.94-2.37-.95-3.39-.03ZM21.58,17.52c-.28.55-.73.96-1.29,1.2-1.28.53-2.61.2-3.6-.88-.13-.13-.26-.26-.36-.42-.03-.04-.04-.07-.05-.08-.03-.03-.04-.05-.07-.07-.04-.03-.08-.04-.11-.04h-.03s-.01,0-.01.01c-.07.01-.12.09-.2.18-.09.13-.17.25-.26.36,0,.01-.01.03-.03.04-.03.03-.05.05-.08.08-.15.16-.29.29-.45.42-.11.09-.22.16-.36.24-.01,0-.03.01-.05.03h-.01s-.07.04-.09.05c-.18.09-.37.17-.58.22-1.25.33-2.57-.12-3.22-1.08-.21-.34-.42-.75-.05-1.04.3-.22.71-.13,1.05.16.79.7,1.86.69,2.68,0,.25-.21.47-.42.67-.67.24-.3.42-.57-.11-.78-.22-.09-.28-.34-.21-.57.05-.24.21-.38.46-.38.12-.01.25-.01.37-.01h1.02c.11,0,.21,0,.33.01h.11s.04.01.07.01c.11.03.21.08.28.17.01.01.01.03.03.04,0,.01.01.03.01.04.01.01.01.03.01.05,0,.01.01.03.01.04s0,.03.01.03v.24s0,.03-.01.04c0,.03,0,.04-.01.05v.03s-.01,0-.01.01c-.01.03-.03.05-.05.08-.01.03-.03.05-.07.08-.04.04-.09.07-.15.08-.32.11-.33.22-.17.53.01.04.03.07.04.09.03.03.04.05.05.09.01.01.03.04.04.05.01.01.03.03.04.05.04.07.08.13.13.18.03.03.04.05.07.07.16.18.36.34.57.47.03.01.05.04.08.05.05.03.12.07.18.09.03.01.05.03.08.04.07.03.13.05.21.08h.03c.11.04.21.07.33.08.07.01.13.03.21.03h.25s.08-.01.13-.01c.01,0,.04,0,.05-.01h.04s.05-.01.08-.01c.03-.01.05-.01.08-.03h.01s.05-.01.08-.03.04-.03.05-.03c.04-.01.08-.03.12-.04.03-.01.05-.03.08-.04.01,0,.01-.01.03-.01.01-.01.04-.03.05-.04.03-.01.07-.03.09-.04.03-.03.05-.04.08-.05.03-.03.05-.04.07-.07.03-.01.04-.03.05-.04.03-.01.04-.04.07-.05.01-.01.03-.03.04-.04.03-.03.05-.05.08-.08.01-.01.04-.04.05-.04.04-.04.08-.07.12-.08.04-.01.08-.03.11-.04.22-.07.47,0,.66.12.29.18.18.51.05.78ZM20.42,13.34c-.12.17-.2.33-.42.38-.36.09-.73.16-1-.09-.28-.25-.16-.61-.07-.9.5-1.58,1.83-2.77,3.85-2.77,1.82.03,3.36,1.2,3.88,2.97.08.28.21.58-.11.76-.33.2-.7.28-1.04.01-.12-.09-.22-.24-.33-.37-.13-.17-.28-.34-.44-.5-.03-.03-.05-.04-.07-.07-.15-.15-.29-.26-.45-.38-1.5-1.12-2.95-.4-3.81.95ZM28.85,14.91s-.01.01-.01.03c-.01.04-.04.07-.08.09h-.01s-.03.03-.03.03c-.01,0-.03,0-.03.01h-.04s-.03.01-.04.01h-.12c-.05,0-.11,0-.15.01-1.03.16-1.98.57-2.95.9-.12.05-.24.11-.37.13-.28.04-.51-.01-.62-.29-.11-.26-.05-.51.2-.66,1.02-.61,2.14-.98,3.28-1.21.34,0,.57.2.76.44.04.05.08.11.11.16.01.01.03.03.04.05,0,.01.01.04.03.05,0,.01.01.04.01.05.01.04.01.08.01.12v.08Z"/>
      <path class="cls-1" d="M28.61,22.17v.07s-.01.01-.01.03c0,0-.01.01-.01.03v.03s-.03.04-.03.05t-.03.03s-.03.05-.04.08-.03.04-.04.07c-.03.01-.04.04-.05.07-.03.03-.05.07-.08.11-.03.03-.05.07-.09.11-.05.08-.12.16-.18.22-.03.04-.05.08-.09.11-.01.03-.04.05-.07.08-.03.03-.04.05-.07.08-.04.03-.07.05-.09.08-.03.04-.07.07-.09.09-.03.03-.07.05-.09.09-.07.05-.12.11-.18.16-.04.03-.07.05-.09.08-.04.03-.07.05-.11.08-.07.05-.13.11-.2.15h0s-.07.05-.11.08c-.03.03-.07.05-.09.07-.05.04-.11.08-.16.11-.01.01-.04.03-.05.04-.15.09-.28.17-.42.26-.15.08-.29.16-.45.24-.07.04-.15.08-.21.12-.16.08-.3.15-.46.22-.08.04-.17.08-.25.12-.07.03-.12.05-.18.08h-.01c-.13.07-.26.12-.38.17-.05.03-.11.05-.16.07-.04.03-.09.04-.15.07-.07.03-.15.05-.21.08,0,0-.01,0-.01.01-.01,0-.03,0-.05.01-.07.03-.15.05-.21.08-.01,0-.03.01-.04.01-.01.01-.04.01-.05.03-.12.04-.22.08-.33.11-.12.04-.24.08-.34.12-.09.03-.18.05-.28.08-.04.01-.08.03-.12.04h-.03c-.09.04-.2.07-.29.09-.12.03-.24.05-.36.09-.12.03-.24.05-.36.08-.12.03-.24.05-.36.08-.25.05-.49.09-.73.13-.04,0-.07.01-.11.01-.11.03-.21.04-.32.05-3.51.62-6.62.13-7.61-.07-.21-.04-.41-.07-.62-.11-.09-.01-.17-.04-.26-.05-.17-.04-.36-.07-.53-.12-.17-.04-.34-.08-.51-.12-.17-.05-.34-.09-.51-.15-.08-.03-.17-.05-.25-.08-.13-.04-.26-.08-.38-.13h-.01c-.05-.01-.11-.04-.16-.05h-.01s-.08-.03-.11-.04c-.05-.03-.09-.04-.13-.05-.04-.01-.09-.03-.13-.05-.09-.04-.2-.07-.3-.12-.09-.04-.18-.08-.29-.12-.04-.03-.09-.04-.15-.07-.03-.01-.05-.03-.08-.04-.01,0-.03-.01-.04-.01-.05-.03-.09-.04-.15-.07-.01,0-.01-.01-.03-.01-.05-.03-.12-.05-.17-.08-.04-.03-.08-.04-.13-.07-.15-.07-.28-.15-.42-.22-.04-.03-.09-.05-.15-.08,0,0-.01,0-.01-.01-.25-.15-.5-.29-.75-.45-.07-.04-.12-.08-.18-.12-.03-.03-.07-.04-.09-.07,0,0-.01,0-.01-.01-.04-.03-.09-.05-.12-.08-.03-.01-.05-.03-.07-.04-.01-.01-.04-.03-.07-.04-.01-.01-.03-.03-.05-.04,0-.01-.01-.01-.01-.01-.05-.04-.11-.08-.16-.12-.03-.03-.07-.05-.11-.08-.08-.05-.16-.12-.24-.18-.04-.03-.08-.05-.12-.09-.01-.01-.04-.03-.05-.05-.03-.01-.04-.03-.05-.04t-.01-.01s-.05-.04-.08-.07c-.04-.04-.07-.07-.11-.11-.05-.05-.11-.11-.16-.16-.01,0-.01-.01-.01-.01-.05-.05-.09-.09-.13-.15l-.04-.04s-.04-.04-.05-.07c-.01-.03-.04-.04-.05-.07,0,0-.01-.01-.01-.03t-.01-.01l-.07-.07s-.05-.08-.08-.11h0s-.03-.05-.03-.05c-.04-.05-.07-.09-.08-.15t-.01-.03s-.01-.03-.01-.04c-.01-.03-.01-.05-.01-.08v-.05s.01-.03.01-.04h0s.01-.03.01-.04.01-.03.03-.04c0,0,0-.01.01-.01,0-.01.01-.03.03-.04s.03-.04.05-.05c.01-.01.04-.03.05-.04.03-.01.04-.03.07-.04.36-.21.7-.46,1.04-.7.45.65,1.13,1.02,1.77,1.41,2.23,1.34,4.71,1.99,7.27,2.28,3.23.37,6.39.01,9.44-1.13,1.52-.58,2.87-1.42,4.17-2.39.12.01.21.07.3.12.09.05.18.11.28.17.04.03.07.05.11.07.03.03.07.05.09.07.05.03.09.07.13.09.03.01.04.03.07.04l.04.04s.01.01.03.03h.01s.03.05.04.07l.03.03h0c.03.05.04.09.04.13Z"/>
      <path class="cls-4" d="M29.14,9.67c-.01.05-.03.12-.05.18-.01.05-.03.12-.05.18,0,.01-.01.03-.01.05-.01.01-.01.03-.03.04,0,.01-.01.04-.01.05-.01.01-.01.03-.03.05-.01.03-.04.07-.07.11,0,.01-.01.03-.03.04,0,.03-.01.04-.03.05-.07-.15-.16-.26-.25-.38-.05-.07-.09-.12-.15-.18-.05-.05-.09-.12-.15-.17-.03-.03-.04-.07-.07-.09-.01-.01-.03-.03-.03-.04-.03-.03-.04-.04-.05-.07-.01-.03-.03-.05-.04-.08-.01-.01-.03-.04-.03-.05-.01-.01-.03-.03-.03-.04-.01-.03-.01-.04-.03-.05-.01-.04-.03-.08-.04-.11h0v-.03s-.01-.05-.03-.08c-.01-.07-.01-.12-.01-.2.15-1,.07-2.02-.08-3.02-.11-.71-.21-1.42-.55-2.07-.3-.54-.63-.71-1.2-.5-.74.28-1.44.63-2.03,1.16-.21.08-.36.24-.5.41-.26.17-.5.37-.7.61-.01.01-.04.03-.05.04-.01,0-.03.01-.04.01s-.03.01-.03.01c-.01.01-.03.01-.04.01-.01.01-.03.01-.04.01s-.03.01-.04.01c-.03,0-.04,0-.05.01h-.05s-.03.01-.04.01c-.03,0-.07.01-.09.01h-.11c-.07.01-.15.01-.21,0h-.09c-.08,0-.17-.01-.25-.04-.01,0-.04,0-.07-.01-.11-.03-.2-.05-.26-.11-.03-.01-.05-.03-.07-.04-.18-.18-.01-.3.08-.42.03-.04.07-.08.09-.12.01-.01.03-.03.04-.05.03-.03.05-.07.09-.11.13-.16.28-.3.42-.45.03-.04.07-.07.09-.11.07-.05.13-.12.21-.18.13-.12.28-.24.42-.36.07-.05.15-.11.22-.16.07-.05.13-.11.2-.15.11-.08.21-.16.32-.22.05-.04.09-.07.13-.09.05-.03.11-.07.16-.09.05-.04.11-.08.16-.11.04-.01.07-.04.09-.05.07-.04.13-.08.2-.12.05-.03.11-.05.16-.08.08-.05.16-.09.24-.13.07-.04.15-.07.21-.11.03-.01.05-.03.08-.04.04-.01.07-.03.09-.04.05-.01.11-.04.16-.07.08-.03.16-.07.22-.09.08-.03.16-.05.24-.08.04-.01.08-.03.12-.04.03-.01.05-.03.08-.03.01-.01.03-.01.05-.01.01-.01.03-.01.04-.01.04-.01.09-.03.13-.04.03-.01.07-.03.11-.03.03-.01.07-.03.09-.03.07-.03.13-.04.21-.05.01,0,.03,0,.04-.01.03,0,.05-.01.09-.01.04-.01.08-.01.12-.01.11-.01.2-.03.29-.01h.13s.04.01.05.01c.03,0,.07.01.09.03.01,0,.04,0,.05.01.01,0,.04,0,.05.01t.03.01c.05.01.11.04.16.08.03,0,.04.01.05.03s.03.01.04.03c0,0,.01.01.03.01.01.01.03.03.04.04.03.01.04.04.07.05.01.03.04.04.05.05.01.03.04.04.05.07.01.01.03.03.05.05.01.03.03.04.04.07.03.03.05.07.07.09.01.03.04.05.05.08.03.04.05.08.08.13.5.92.76,1.95.95,2.98.24,1.38.22,2.77-.05,4.14Z"/>
      <path class="cls-4" d="M10.7,5.27h0v.03s-.01.01-.01.03h0s-.01.01-.01.03c-.01.01-.03.03-.04.03,0,.01-.01.01-.01.03h-.01s-.01.01-.01.01h-.01s-.04.03-.07.04h-.01s-.07.03-.12.04h-.01s-.01.01-.01.01c-.03,0-.07.01-.11.03-.09.03-.2.05-.29.07-.03,0-.05.01-.08.01-.04,0-.09.01-.15.01h-.17s-.05-.01-.08-.01c-.04,0-.07-.01-.11-.03-.03,0-.04-.01-.05-.01-.03-.01-.07-.03-.09-.04t-.03-.01s-.01-.01-.01-.01c-.03-.01-.05-.03-.07-.04-.01-.01-.04-.03-.05-.04l-.11-.11s-.03-.03-.04-.04c-.87-.79-1.81-1.5-2.9-1.94-.67-.28-1.13-.13-1.4.53-.11.26-.2.54-.29.82-.07.2-.12.41-.16.62-.07.3-.12.62-.15.94-.09.76-.07,1.54.05,2.35.01.09.03.2.05.3l-.03.03h.03s-.01.05-.04.08c0,.01,0,.03-.01.04,0,0-.01.01-.03.03-.01.05-.04.11-.08.15,0,.01-.01.03-.01.04-.01.01-.03.03-.03.03-.01.03-.04.05-.05.07-.03.04-.07.09-.11.13-.03.03-.05.07-.08.09-.03.03-.04.05-.07.07,0,.01-.01.01-.01.03-.01,0-.01.01-.01.01-.03.03-.05.05-.07.07-.04.05-.08.09-.12.13-.01.01-.01.03-.03.04-.04.04-.07.08-.09.12-.03.03-.04.05-.05.08-.03.03-.04.04-.05.05h-.01s-.03.03-.03.03t-.01.01h-.03s-.03,0-.03-.01h-.01s-.01-.01-.01-.01h-.01s-.01-.04-.03-.05c0,0,0-.01-.01-.03,0,0,0-.01-.01-.01,0-.01,0-.03-.01-.04,0-.03-.01-.04-.03-.07-.01-.04-.03-.08-.03-.12-.01-.03-.03-.05-.03-.07-.01-.04-.01-.07-.03-.11t-.01-.03v-.03s-.01-.05-.03-.08h0c0-.05-.01-.08-.01-.11-.01-.08-.03-.15-.04-.22,0-.03-.01-.07-.01-.11-.01-.07-.03-.15-.03-.21-.01-.08-.01-.15-.03-.22-.01-.15-.03-.29-.03-.44-.03-.36-.04-.7-.03-1.04,0-.2.01-.4.03-.59.01-.18.04-.37.05-.54h0c.01-.09.01-.16.03-.22h0s.01-.07.01-.09h0l.04-.24c.01-.08.03-.16.04-.24,0-.01.01-.04.01-.05.01-.08.04-.17.05-.25.04-.22.09-.44.16-.65,0-.01.01-.03.01-.04s0-.03.01-.05c.01-.05.03-.11.04-.16.01-.03.01-.05.03-.08t.01-.03h0s.01-.08.03-.12c0-.01.01-.03.01-.03,0-.03.01-.05.03-.08,0-.01,0-.04.01-.05,0-.01.01-.04.01-.05.07-.18.12-.36.18-.53l.04-.11s.04-.09.05-.13c.01-.03.03-.07.04-.09s.03-.07.05-.09c.01-.03.03-.05.04-.08.03-.05.05-.09.08-.13.03-.04.05-.08.08-.12.05-.08.09-.15.15-.2.03-.03.05-.05.08-.09.03-.03.05-.07.08-.08.03-.03.04-.05.07-.07.03-.03.05-.04.08-.07.01,0,.03-.01.04-.03.01,0,.03-.01.04-.03.01-.01.03-.01.04-.03.01,0,.03-.01.05-.03.01,0,.03-.01.05-.03.08-.04.16-.07.26-.08h.07s.03-.01.04-.01h.04s.07,0,.11.01c.08,0,.16.01.25.03.12.01.24.05.37.09.12.04.25.08.36.12.01,0,.04.01.05.01h.01s.01.01.01.01t.01.01s.08.03.12.04c.08.03.15.05.21.08.08.03.15.07.21.09.08.03.15.05.21.09.05.03.12.04.17.08.13.07.28.13.41.2.07.04.13.07.21.11.05.04.12.07.17.11.03.01.04.03.07.04.07.03.12.07.18.11.03.01.04.03.05.04.05.03.09.05.15.08.03.03.05.04.08.07.05.03.12.07.17.11.03.03.07.05.11.08.03.01.07.04.09.07,0,0,.01,0,.01.01.07.04.13.09.2.15.08.05.15.11.21.16h0c.07.07.13.12.2.17.07.05.12.11.18.16h.03s.01.03.01.03l.16.16c.05.05.12.11.17.16l.21.21c.05.05.11.12.17.18h.01c.05.08.12.15.17.2.15.17.22.29.22.38Z"/>
      <path class="cls-1" d="M3.8,20.15c-.07.04-.12.09-.18.13-.04.03-.08.07-.12.09-.05.03-.09.05-.12.08-.03.01-.05.03-.08.05-.05.03-.09.05-.13.08h-.01s-.04.03-.05.04c-.04.01-.08.04-.12.05-.01.01-.04.01-.05.03-.03,0-.04.01-.05.01s-.03.01-.05.01h-.05s-.03.01-.04.01-.03,0-.04-.01h-.03s-.03-.01-.04-.01-.03,0-.03-.01h-.01l-.08-.08s-.01-.01-.03-.01c-.03-.04-.05-.08-.08-.12-.01-.03-.03-.05-.03-.08-.01-.01-.01-.03-.03-.04-.03-.05-.04-.11-.07-.17-.01-.04-.03-.07-.04-.11-.04-.15-.09-.32-.15-.53-.07-.22-.11-.45-.15-.69-.01-.05-.03-.12-.04-.17-.01-.11-.03-.2-.01-.26v-.04s0-.03.01-.04c0-.01.01-.03.03-.03h0s.01-.01.01-.03t.03-.01s.01-.01.03-.01c0,0,.01-.01.03-.01,0,0,.01,0,.03-.01.03,0,.05-.01.08-.01h.03c.08-.01.2-.01.33-.01.32.71.75,1.36,1.31,1.91Z"/>
      <path class="cls-1" d="M30.06,18.96c-.08.55-.26,1.05-.5,1.56-.04.08-.08.13-.12.17-.01.01-.04.03-.07.04-.08.04-.17.01-.29-.08-.01-.01-.04-.03-.05-.04-.03-.01-.04-.03-.07-.04-.01-.01-.04-.03-.07-.04-.01,0-.04-.01-.07-.03-.04-.01-.07-.03-.11-.05-.01,0-.04-.01-.05-.03-.01,0-.04-.01-.05-.03-.03-.01-.07-.04-.09-.05h-.01s-.03-.03-.04-.04c-.01-.01-.03-.03-.04-.04l-.04-.04s-.03-.04-.04-.05-.03-.04-.04-.05c.18-.51.67-.79.92-1.25.11-.21.22-.4.18-.65.71,0,.74.04.63.74Z"/>
      <path class="cls-3" d="M16.14,14.5c.27,0,.54,0,.8,0,.24.01.47.08.52.37.05.27,0,.53-.29.62-.32.11-.33.23-.18.53.61,1.24,2.44,1.98,3.59.76.24-.26.65-.21.93-.03.29.18.19.51.05.77-.28.56-.72.96-1.3,1.2-1.28.53-2.6.2-3.6-.88-.12-.13-.26-.26-.36-.42-.18-.29-.29-.22-.46.02-.48.69-1.09,1.21-1.92,1.43-1.24.33-2.56-.12-3.21-1.09-.22-.34-.43-.75-.06-1.03.3-.23.72-.14,1.05.15.79.7,1.87.68,2.68,0,.24-.2.47-.43.67-.67.24-.3.43-.57-.11-.78-.22-.09-.27-.34-.21-.56.06-.23.22-.38.47-.39.3-.01.6,0,.9,0Z"/>
      <path class="cls-3" d="M13.26,13.25c.04.25-.06.48-.36.54-.43.09-.88.15-1.18-.29-.22-.33-.45-.66-.75-.94-1.01-.93-2.38-.94-3.39-.02-.31.28-.59.59-.84.92-.26.35-.73.44-1.1.24-.43-.23-.37-.6-.23-.96.59-1.56,1.67-2.58,3.36-2.76,1.83-.2,3.27.46,4.17,2.14.18.34.31.7.31,1.13Z"/>
      <path class="cls-3" d="M30.9,12.53c-.3-.57-.38-1.08-.22-1.71.69-2.66.66-5.33-.34-7.92-.24-.65-.55-1.25-.95-1.82-.69-1.02-1.7-1.2-2.8-.99-2.19.41-4.09,1.45-5.72,2.94-1.24,1.15-1.23,1.13-2.87.92-1.54-.2-3.07-.17-4.6.08-.69.12-1.23.04-1.78-.51C9.91,1.83,7.88.63,5.52.1c-1.38-.32-2.39.13-3.09,1.37C1.19,3.64.78,5.99.96,8.47c.08,1.03.3,2.02.55,2.99.05.21-.01.36-.11.51C.38,13.77-.06,15.71,0,17.75c.08,2.33.99,4.34,2.52,6.09.16.18.33.38.49.57,0,0,.07.05.16.15.41.38,1.61,1.48,2.65,1.99.18.08.33.16.49.24.04.03.07.04.08.05l.09.04c.12.05.22.11.33.16.08.04.16.08.25.12.03,0,.04,0,.05.01,0,0,.01.01.03.01.08.04.16.08.25.11.08.04.18.08.26.11.09.04.17.07.26.09.08.04.17.07.25.09s.15.05.2.08c.04,0,.05.01.07.01.09.03.18.05.26.08s.16.05.24.07c0,.01.01.01.01.01.09.03.2.05.28.07.05.03.13.04.2.05.03.01.07.01.09.03.08.01.16.03.25.05.09.01.17.04.25.05.09.01.2.03.29.05.38.12,1.81.28,1.81.28,0,0,1.69.18,1.7.18.83.07,1.57.09,2.15.09.79,0,1.52-.03,2.2-.08.01-.01.03-.01.04-.01h.05c.7-.05,1.36-.15,1.96-.25h.01s.05-.03.08-.03c.01-.01.04-.01.05-.01h.09s.11-.01.11-.01c.46-.05.91-.13,1.37-.22.12-.03.22-.05.34-.08.11-.03.22-.05.33-.08.11-.03.22-.05.34-.09.22-.05.42-.12.66-.2.09-.03.17-.05.26-.09h.03s.05-.03.11-.04c.08-.03.15-.05.22-.08.01,0,.03-.01.05-.01,0-.01.03-.01.04-.03h.01c.07-.03.13-.04.18-.07.07-.03.09-.04.16-.07.04-.01.09-.03.13-.05.04-.01.09-.04.13-.05.08-.04.16-.07.25-.11h.05c.08-.05.16-.09.24-.12h0s.11-.05.15-.07c.08-.04.16-.08.22-.11.03-.01.05-.03.07-.04,1-.5,2.73-1.89,2.73-1.89.04-.03.05-.04.08-.07,1.73-1.73,2.91-3.76,3.19-6.21.24-2.08,0-4.13-1.02-6ZM21.43,4.98s.07-.08.09-.12c.01-.01.03-.03.04-.05.03-.03.05-.07.09-.11.13-.16.28-.3.42-.45.03-.04.07-.07.09-.11.07-.05.13-.12.21-.18.13-.12.28-.24.42-.36.07-.05.15-.11.22-.16.07-.05.13-.11.2-.15.11-.08.21-.16.32-.22.05-.04.09-.07.13-.09.05-.03.11-.07.16-.09.05-.04.11-.08.16-.11.04-.01.07-.04.09-.05.07-.04.13-.08.2-.12.05-.03.11-.05.16-.08.08-.05.16-.09.24-.13.07-.04.15-.07.21-.11.03-.01.05-.03.08-.04.04-.01.07-.03.09-.04.05-.01.11-.04.16-.07.08-.03.16-.07.22-.09.08-.03.16-.05.24-.08.04-.01.08-.03.12-.04.03-.01.05-.03.08-.03.01-.01.03-.01.05-.01.01-.01.03-.01.04-.01.04-.01.09-.03.13-.04.03-.01.07-.03.11-.03.03-.01.07-.03.09-.03.07-.03.13-.04.21-.05.01,0,.03,0,.04-.01.03,0,.05-.01.09-.01.04-.01.08-.01.12-.01.11-.01.2-.03.29-.01h.13s.04.01.05.01c.03,0,.07.01.09.03.01,0,.04,0,.05.01.01,0,.04,0,.05.01t.03.01c.05.01.11.04.16.08.03,0,.04.01.05.03s.03.01.04.03c0,0,.01.01.03.01.01.01.03.03.04.04.03.01.04.04.07.05.01.03.04.04.05.05.01.03.04.04.05.07.01.01.03.03.05.05.01.03.03.04.04.07.03.03.05.07.07.09.01.03.04.05.05.08.03.04.05.08.08.13.5.92.76,1.95.95,2.98.24,1.38.22,2.77-.05,4.14-.01.05-.03.12-.05.18-.01.05-.03.12-.05.18,0,.01-.01.03-.01.05-.01.01-.01.03-.03.04,0,.01-.01.04-.01.05-.01.01-.01.03-.03.05-.01.03-.04.07-.07.11,0,.01-.01.03-.03.04,0,.03-.01.04-.03.05-.07-.15-.16-.26-.25-.38-.05-.07-.09-.12-.15-.18-.05-.05-.09-.12-.15-.17-.03-.03-.04-.07-.07-.09-.01-.01-.03-.03-.03-.04-.03-.03-.04-.04-.05-.07-.01-.03-.03-.05-.04-.08-.01-.01-.03-.04-.03-.05-.01-.01-.03-.03-.03-.04-.01-.03-.01-.04-.03-.05-.01-.04-.03-.08-.04-.11h0v-.03s-.01-.05-.03-.08c-.01-.07-.01-.12-.01-.2-.01-.53-.51-.82-.63-1.31-.07-.09-.15-.18-.22-.28-.26-.07-.41-.29-.57-.47-.37-.42-.92-.57-1.34-.91-.03-.01-.05-.03-.09-.03-.34,0-.69-.03-.99-.21-.09-.01-.2-.03-.29-.03-.33.09-.63-.07-.92-.18-.01.01-.04.03-.05.04-.01,0-.03.01-.04.01s-.03.01-.03.01c-.01.01-.03.01-.04.01-.01.01-.03.01-.04.01s-.03.01-.04.01c-.03,0-.04,0-.05.01h-.05s-.03.01-.04.01c-.03,0-.07.01-.09.01h-.11c-.07.01-.15.01-.21,0h-.09c-.08,0-.17-.01-.25-.04-.01,0-.04,0-.07-.01-.11-.03-.2-.05-.26-.11-.03-.01-.05-.03-.07-.04-.18-.18-.01-.3.08-.42ZM2.68,7.22v-.32c.01-.09.01-.18.03-.28,0-.08.01-.17.01-.26.01-.09.03-.18.04-.28h0c.01-.09.01-.16.03-.22h0s.01-.07.01-.09h0c.01-.08.03-.16.04-.24l.04-.24s.01-.04.01-.05v-.04c.01-.07.03-.13.05-.21.01-.07.03-.13.04-.21.01-.01.01-.04.01-.05.03-.08.04-.15.05-.21.03-.05.04-.12.05-.17,0-.01.01-.03.01-.04s0-.03.01-.05c.01-.05.03-.11.04-.16.01-.03.01-.05.03-.08t.01-.03h0s.01-.08.03-.12c0-.01.01-.03.01-.03,0-.03.01-.05.03-.08,0-.01,0-.04.01-.05,0-.01.01-.04.01-.05.07-.18.12-.36.18-.53l.04-.11s.04-.09.05-.13c.01-.03.03-.07.04-.09s.03-.07.05-.09c.01-.03.03-.05.04-.08.03-.05.05-.09.08-.13.03-.04.05-.08.08-.12.03-.03.05-.07.07-.11.03-.03.05-.07.08-.09.03-.03.05-.05.08-.09.03-.03.05-.07.08-.08.03-.03.04-.05.07-.07.03-.03.05-.04.08-.07.01,0,.03-.01.04-.03.01,0,.03-.01.04-.03.01-.01.03-.01.04-.03.01,0,.03-.01.05-.03.01,0,.03-.01.05-.03.08-.04.16-.07.26-.08h.07s.03-.01.04-.01h.04s.07,0,.11.01c.08,0,.16.01.25.03.12.01.24.05.37.09.07.01.12.04.18.05.05.03.12.04.17.07.01,0,.04.01.05.01h.01s.01.01.01.01t.01.01s.08.03.12.04c.08.03.15.05.21.08.08.03.15.07.21.09.08.03.15.05.21.09.05.03.12.04.17.08.05.01.11.04.16.07.08.04.17.09.25.13.07.04.13.07.21.11.05.04.12.07.17.11.03.01.04.03.07.04.07.03.12.07.18.11.03.01.04.03.05.04.05.03.09.05.15.08.03.03.05.04.08.07.05.03.12.07.17.11.03.03.07.05.11.08.03.01.07.04.09.07,0,0,.01,0,.01.01.07.04.13.09.2.15.08.05.15.11.21.16h0c.07.07.13.12.2.17.07.05.12.11.18.16h.03s.01.03.01.03l.16.16c.05.05.12.11.17.16l.21.21c.05.05.11.12.17.18h.01c.05.08.12.15.17.2.15.17.22.29.22.38h0v.03s-.01.01-.01.03h0s-.01.01-.01.03c-.01.01-.03.03-.04.03,0,.01-.01.01-.01.03h-.01s-.01.01-.01.01h-.01s-.04.03-.07.04h-.01s-.07.03-.12.04h-.01s-.01.01-.01.01c-.03,0-.07.01-.11.03-.09.03-.2.05-.29.07-.03,0-.05.01-.08.01-.04,0-.09.01-.15.01h-.17s-.05-.01-.08-.01c-.04,0-.07-.01-.11-.03-.03,0-.04-.01-.05-.01-.03-.01-.07-.03-.09-.04t-.03-.01c.22.21.12.15-.47.29-.26.07-.59.13-.87.17-1.23.2-2.28.98-3.06,2.04-.2.26-.36.59-.53.87-.08.12-.15.18-.2.18-.01.01-.03.04-.04.07s-.03.04-.04.07h-.01s-.01.03-.01.04c-.01.01-.03.03-.03.03-.01.03-.04.05-.05.07-.03.04-.07.09-.11.13-.03.03-.05.07-.08.09-.03.03-.04.05-.07.07,0,.01-.01.01-.01.03-.01,0-.01.01-.01.01-.03.03-.05.05-.07.07-.04.05-.08.09-.12.13-.01.01-.01.03-.03.04-.04.04-.07.08-.09.12-.03.03-.04.05-.05.08-.03.03-.04.04-.05.05h-.01v.03h-.03s0,.01-.01.01h-.03s-.03,0-.03-.01h-.01s-.01-.01-.01-.01h-.01s-.01-.04-.03-.05c0,0,0-.01-.01-.03,0,0,0-.01-.01-.01,0-.01,0-.03-.01-.04,0-.03-.01-.04-.03-.07-.01-.04-.03-.08-.03-.12-.01-.03-.03-.05-.03-.07-.01-.04-.01-.07-.03-.11t-.01-.03v-.03s-.01-.05-.03-.08h0c0-.05-.01-.08-.01-.11-.01-.08-.03-.15-.04-.22,0-.03-.01-.07-.01-.11-.01-.07-.03-.15-.03-.21-.01-.08-.01-.15-.03-.22-.01-.15-.03-.29-.03-.44-.03-.26-.04-.53-.04-.8,0-.08,0-.16.01-.24ZM30.19,16.62l-.03.03s-.11.04-.22.01c-.05,0-.11-.01-.17-.01-.09-.01-.18-.03-.28-.03-.83-.07-1.67,0-2.51.07-.18.01-.37.04-.55.05-.11,0-.2.03-.3.05-.03,0-.05.01-.08.01-.01.01-.04.01-.05.03-.05.01-.11.04-.15.07-.03.01-.05.03-.08.04-.01.01-.04.03-.05.04-.03.01-.04.03-.07.04-.03.04-.07.07-.09.11-.01.01-.01.03-.03.04-.04.09-.07.17-.04.26.01.07.03.13.05.17.01.03.03.05.04.07.01.04.04.07.07.09,0,0,.01.01.03.01,0,.01.01.03.03.03.07.05.13.08.21.09.17.04.34.05.51.07.13.03.25.04.38.05.12,0,.25.01.37.01.18.01.38.03.57.03.18.01.37.01.55.03.07,0,.13.01.18.01.32.03.63.07.94.15.71,0,.74.04.63.74-.08.55-.26,1.05-.5,1.56-.04.08-.08.13-.12.17-.01.01-.04.03-.07.04-.08.04-.17.01-.29-.08-.01-.01-.04-.03-.05-.04-.03-.01-.04-.03-.07-.04-.01-.01-.04-.03-.07-.04-.01,0-.04-.01-.07-.03-.04-.01-.07-.03-.11-.05-.01,0-.04-.01-.05-.03-.01,0-.04-.01-.05-.03-.03-.01-.07-.04-.09-.05h-.01l-.04-.04s-.03-.03-.04-.04l-.04-.04s-.03-.04-.04-.05-.03-.04-.04-.05c-.29-.11-.59-.24-.87-.37-.22-.09-.44-.2-.65-.3-.08-.04-.15-.07-.21-.11-.08-.04-.16-.08-.25-.13-.09-.04-.18-.09-.26-.15-.21-.11-.44-.21-.67-.11-.41.18-.5.63-.22.92l.07.07s.04.03.07.04c.12.08.24.16.36.24.12.07.24.13.37.21.18.09.37.2.55.3.05.04.12.07.18.11.07.04.13.08.2.11.07.03.12.05.17.09.07.04.15.09.2.15.01.01.03.03.04.04.03.03.05.07.07.09.12.01.21.07.3.12.09.05.18.11.28.17.04.03.07.05.11.07.03.03.07.05.09.07.05.03.09.07.13.09.03.01.04.03.07.04l.04.04s.01.01.03.03h.01s.03.05.04.07l.03.03h0s.01.01.01.03c0,0,.01.01.01.03s.01.03.01.03v.12s-.01.01-.01.03v.03h-.01v.03s-.03.04-.03.05t-.03.03s-.03.05-.04.08-.03.04-.04.07c-.03.01-.04.04-.05.07-.03.03-.05.07-.08.11-.03.03-.05.07-.09.11-.05.08-.12.16-.18.22-.03.04-.05.08-.09.11-.01.03-.04.05-.07.08-.03.03-.04.05-.07.08-.04.03-.07.05-.09.08-.03.04-.07.07-.09.09-.03.03-.07.05-.09.09-.07.05-.12.11-.18.16-.04.03-.07.05-.09.08-.04.03-.07.05-.11.08-.07.05-.13.11-.2.15h0s-.07.05-.11.08c-.03.03-.07.05-.09.07-.05.04-.11.08-.16.11-.01.01-.04.03-.05.04-.15.09-.28.17-.42.26-.15.08-.29.16-.45.24-.07.04-.15.08-.21.12-.16.08-.3.15-.46.22-.08.04-.17.08-.25.12-.07.03-.12.05-.18.08h-.01c-.13.07-.26.12-.38.17-.05.03-.11.05-.16.07-.04.03-.09.04-.15.07-.07.03-.15.05-.21.08,0,0-.01,0-.01.01-.01,0-.03,0-.05.01-.07.03-.15.05-.21.08-.01,0-.03.01-.04.01-.01.01-.04.01-.05.03-.12.04-.22.08-.33.11-.12.04-.24.08-.34.12-.09.03-.18.05-.28.08-.04.01-.08.03-.12.04h-.03c-.09.04-.2.07-.29.09-.12.03-.24.05-.36.09-.12.03-.24.05-.36.08-.12.03-.24.05-.36.08-.13.03-.26.05-.4.07-.15.03-.29.07-.44.08-3.64.7-6.91.18-7.92-.01-.11-.01-.18-.04-.25-.05-.03.01-.05,0-.08,0h0c-.09-.01-.2-.04-.29-.05s-.17-.04-.26-.05c-.17-.04-.36-.07-.53-.12-.17-.04-.34-.08-.51-.12-.17-.05-.34-.09-.51-.15-.08-.03-.17-.05-.25-.08-.13-.04-.26-.08-.38-.13h-.01c-.05-.01-.11-.04-.16-.05h-.01s-.08-.03-.11-.04c-.05-.03-.09-.04-.13-.05-.04-.01-.09-.03-.13-.05-.09-.04-.2-.07-.3-.12-.09-.04-.18-.08-.29-.12-.04-.03-.09-.04-.15-.07-.03-.01-.05-.03-.08-.04-.01,0-.03-.01-.04-.01-.05-.03-.09-.04-.15-.07-.01,0-.01-.01-.03-.01-.05-.03-.12-.05-.17-.08-.04-.03-.08-.04-.13-.07-.15-.07-.28-.15-.42-.22-.04-.03-.09-.05-.15-.08,0,0-.01,0-.01-.01-.04-.01-.08-.04-.12-.05-.04-.04-.09-.07-.15-.09-.17-.09-.33-.2-.49-.3-.07-.04-.12-.08-.18-.12-.03-.03-.07-.04-.09-.07,0,0-.01,0-.01-.01-.04-.03-.09-.05-.12-.08-.03-.01-.05-.03-.07-.04-.01-.01-.04-.03-.07-.04-.01-.01-.03-.03-.05-.04,0-.01-.01-.01-.01-.01-.05-.04-.11-.08-.16-.12-.03-.03-.07-.05-.11-.08-.08-.05-.16-.12-.24-.18-.04-.03-.08-.05-.12-.09-.01-.01-.04-.03-.05-.05-.03-.01-.04-.03-.05-.04t-.01-.01s-.05-.04-.08-.07c-.04-.04-.07-.07-.11-.11-.05-.05-.11-.11-.16-.16-.01,0-.01-.01-.01-.01-.05-.05-.09-.09-.13-.15l-.04-.04s-.04-.04-.05-.07c-.01-.03-.04-.04-.05-.07,0,0-.01-.01-.01-.03t-.01-.01l-.07-.07s-.05-.08-.08-.11h0s-.03-.05-.03-.05l-.04-.04s-.01-.04-.03-.05-.01-.04-.01-.05t-.01-.03s-.01-.03-.01-.04c-.01-.03-.01-.05-.01-.08v-.05s.01-.03.01-.04h0s.01-.03.01-.04.01-.03.03-.04c0,0,0-.01.01-.01,0-.01.01-.03.03-.04s.03-.04.05-.05c.01-.01.04-.03.05-.04.03-.01.04-.03.07-.04.36-.21.7-.46,1.04-.7.55-.41,1.17-.7,1.77-1.04.08-.05.17-.11.25-.16.03-.01.05-.04.08-.05.03-.03.04-.04.07-.07.01-.01.03-.03.04-.05.01-.01.03-.03.04-.05.07-.11.09-.22.04-.37-.04-.15-.12-.24-.24-.29-.03-.01-.05-.03-.08-.03-.01-.01-.03-.01-.05-.01-.05-.01-.11-.03-.17-.03-.08,0-.17,0-.25.03-.03,0-.05,0-.07.01-.04,0-.07.01-.09.03-.01,0-.03.01-.04.01-.04.01-.07.03-.09.04-.08.03-.15.05-.22.09-.66.32-1.32.62-1.99.94-.07.04-.12.09-.18.13-.04.03-.08.07-.12.09-.05.03-.09.05-.12.08-.03.01-.05.03-.08.05-.05.03-.09.05-.13.08h-.01s-.04.03-.05.04c-.04.01-.08.04-.12.05-.01.01-.04.01-.05.03-.03,0-.04.01-.05.01s-.03.01-.05.01h-.05s-.03.01-.04.01-.03,0-.04-.01h-.03s-.03-.01-.04-.01-.03,0-.03-.01h-.01l-.08-.08s-.01-.01-.03-.01c-.03-.04-.05-.08-.08-.12-.01-.03-.03-.05-.03-.08-.01-.01-.01-.03-.03-.04-.03-.05-.04-.11-.07-.17-.01-.04-.03-.07-.04-.11-.04-.15-.09-.32-.15-.53-.07-.22-.11-.45-.15-.69-.01-.05-.03-.12-.04-.17-.01-.11-.03-.2-.01-.26v-.04s0-.03.01-.04c0-.01.01-.03.03-.03h0s.01-.01.01-.03t.03-.01s.01-.01.03-.01c0,0,.01-.01.03-.01,0,0,.01,0,.03-.01.03,0,.05-.01.08-.01h.03s.04,0,.05-.01h.28c.26-.08.51-.13.78-.17h.08c.13-.03.28-.03.41-.04.05,0,.11,0,.17-.01h1.41c.08,0,.16,0,.24-.01h.08c.07,0,.12,0,.16-.01h.08s.07-.01.11-.01c.15-.03.26-.05.36-.09.04-.03.08-.04.12-.07.12-.09.17-.21.17-.37,0-.22-.08-.36-.17-.45-.01-.01-.03-.01-.03-.03-.01-.01-.03-.01-.04-.03-.03-.03-.07-.04-.11-.05-.04-.03-.08-.04-.13-.05-.03,0-.05-.01-.08-.01-.05-.01-.11-.03-.16-.03-.08-.01-.16-.03-.24-.03-1.17-.16-2.35-.34-3.53-.09h-.01s-.05.01-.08.01c-.07.01-.11.01-.15,0-.01,0-.04-.01-.05-.01,0-.01-.01-.01-.01-.01l-.04-.04s-.01-.03-.01-.04c-.03-.05-.03-.13-.01-.21,0-.04,0-.07.01-.11,0-.09.01-.18.03-.28.01-.12.03-.22.05-.34.01-.07.01-.13.03-.2.01-.04.01-.07.03-.11.03-.17.07-.34.11-.5.04-.17.08-.33.13-.49.4-1.36,1.07-2.57,1.94-3.67.12-.15.24-.28.36-.42.07-.07.13-.13.2-.21.12-.13.25-.26.38-.41.33-.33.69-.65,1.05-.96.49-.42,1-.78,1.53-1.11.16-.09.3-.17.46-.26.16-.08.3-.16.46-.24.24-.12.47-.22.73-.33.08-.03.16-.05.24-.09.17-.07.33-.12.5-.18.08-.03.16-.05.24-.08.17-.05.34-.11.5-.16.17-.04.34-.09.51-.13.08-.03.17-.04.25-.07.13-.03.26-.05.4-.08.13-.03.26-.05.38-.08.26-.05.53-.09.79-.13.28-.04.54-.07.8-.11.15-.01.29-.03.45-.04.29-.03.58-.04.87-.05.15-.01.29-.01.44-.03.69-.01,1.34,0,2.02.05.29.01.58.04.88.08.13.03.28.04.42.07.12.01.24.03.36.05.07.01.13.03.21.04.2.04.4.08.61.12.13.03.26.07.4.09.28.07.54.15.8.22.13.04.26.09.4.13.15.04.28.09.41.15.07.01.13.04.2.07.13.05.26.11.38.16.5.21.96.45,1.41.71.17.09.33.2.5.3.18.13.37.26.55.4.18.13.36.28.54.42.4.33.78.69,1.15,1.05.09.09.18.18.28.28.13.15.28.29.41.44.04.05.08.09.13.15.11.12.2.24.3.36.07.09.15.18.21.28.07.09.15.18.21.28.13.18.25.38.37.58.07.11.13.22.2.34.67,1.23,1.07,2.58,1.21,4.03.01.13.01.21-.01.25Z"/>
      <path class="cls-2" d="M27.95,8.86c-.01-.53-.51-.82-.63-1.31-.07-.09-.15-.18-.22-.28-.26-.07-.41-.29-.57-.47-.37-.42-.92-.57-1.34-.91-.03-.01-.05-.03-.09-.03-.34,0-.69-.03-.99-.21-.09-.01-.2-.03-.29-.03-.33.09-.63-.07-.92-.18.2-.24.44-.44.7-.61.15-.17.29-.33.5-.41.59-.53,1.29-.88,2.03-1.16.57-.21.9-.04,1.2.5.34.65.45,1.36.55,2.07.15,1,.22,2.02.08,3.02Z"/>
      <path class="cls-3" d="M22.78,9.97c1.82.02,3.37,1.2,3.88,2.97.08.27.2.58-.11.76-.33.19-.69.28-1.03.01-.13-.1-.23-.24-.33-.37-.28-.35-.59-.69-.95-.96-1.51-1.12-2.95-.39-3.82.95-.11.17-.19.33-.42.39-.35.09-.72.15-1-.1-.28-.24-.16-.6-.07-.89.5-1.58,1.84-2.78,3.85-2.77Z"/>
      <path class="cls-3" d="M27.89,13.97c.34,0,.56.19.76.43.13.16.26.36.19.54-.07.18-.31.13-.49.16-1.02.16-1.97.57-2.94.9-.13.04-.25.1-.38.12-.27.04-.51,0-.62-.29-.11-.26-.04-.51.2-.66,1.02-.61,2.13-.97,3.29-1.2Z"/>
      <path class="cls-3" d="M4.05,14c.94.08,1.75.41,2.55.77.24.11.49.22.72.35.27.15.47.34.3.68-.16.32-.37.48-.76.33-.84-.31-1.69-.59-2.53-.89-.25-.09-.51-.18-.78-.15-.27.03-.34-.09-.25-.31.15-.38.31-.74.75-.78Z"/>
      <path class="cls-2" d="M8.74,5.82c-.26.07-.59.13-.87.17-1.23.2-2.28.98-3.06,2.04-.2.26-.36.59-.53.87-.08.12-.15.18-.2.18h-.01c-.15-.12-.15-.51-.16-.73-.01-.7.03-1.41.13-2.11.03-.32.08-.63.15-.94.04-.21.09-.42.16-.62.09-.28.18-.55.29-.82.01-.08.05-.16.09-.24.44-.83,1.36-.51,1.98-.16.75.44,1.49.95,2.08,1.61.16.18.29.32.38.4t.03.03s.01,0,.01.01c.22.21.12.15-.47.29Z"/>
      <path class="cls-4" d="M11.83,26.65s-.05,0-.08,0h0s.03,0,.08,0Z"/>
    </g>
  </g>
</svg>