<?xml version="1.0" encoding="UTF-8"?>
<svg id="Layer_2" data-name="Layer 2" xmlns="http://www.w3.org/2000/svg" viewBox="0 0 779.67 799.54">
  <defs>
    <style>
      .cls-1 {
        fill: #8d2422;
      }

      .cls-1, .cls-2, .cls-3, .cls-4, .cls-5, .cls-6, .cls-7 {
        stroke-width: 0px;
      }

      .cls-2 {
        fill: #f9e2e2;
      }

      .cls-3 {
        fill: #bfa895;
      }

      .cls-4 {
        fill: #c92227;
      }

      .cls-5 {
        fill: #000;
      }

      .cls-6 {
        fill: #fefaed;
      }

      .cls-7 {
        fill: #fff;
      }
    </style>
  </defs>
  <g id="Layer_1-2" data-name="Layer 1">
    <rect class="cls-4" x="159" y="164.55" width="463.11" height="634.99" rx="219.52" ry="219.52"/>
    <g>
      <path class="cls-7" d="M129.4,413.89c3.12-1.86,5.69-4.21,7.62-6.98,2.11-3.03,3.21-6.86,3.27-11.38.06-5.04-1.37-9.21-4.26-12.38-2.94-3.22-6.69-4.95-10.84-5-3.24-.06-6.56.71-9.88,2.23-2.95,1.35-6.25,3.29-10.05,5.92l-47.7,32.41-25.86-28c-4.54-4.88-9.43-7.38-14.52-7.44-4.39-.08-8.39,1.6-11.49,4.78-3.07,3.16-4.66,7.27-4.72,12.21-.05,3.83.83,7.07,2.6,9.63,1.36,1.97,3.35,4.22,6.07,6.88l42.34,41.64-31.39-.39c-6.47-.09-11.51,1.5-15.03,4.7C1.98,465.94.07,470.38,0,475.53c-.07,5.28,1.79,9.77,5.38,12.99,3.44,3.1,8.41,4.72,14.75,4.8l92.93,1.17c1.06.01,2.04.02,2.97.02,2.72,0,4.88-.06,6.56-.17,2.74-.19,5.23-.82,7.4-1.87l.2-.1c2.75-1.49,4.97-3.65,6.59-6.41,1.6-2.72,2.43-5.64,2.47-8.67.06-5.09-1.73-9.56-5.2-12.91-3.43-3.33-8.48-5.05-15.01-5.14l-23.7-.3-14.02-15,41.21-26.06c2.09-1.19,4.4-2.53,6.86-4Z"/>
      <path class="cls-7" d="M129.98,314.73l-97.27-15.4c-6.38-1.01-11.6-.17-15.54,2.48-3.99,2.7-6.53,6.81-7.33,11.91-.79,5.01.39,9.65,3.41,13.43,2.95,3.69,7.65,6.07,13.95,7.07l97.27,15.4c1.73.27,3.38.41,4.94.41,4.13,0,7.67-.96,10.56-2.86,4.07-2.68,6.64-6.72,7.43-11.67.81-5.11-.35-9.82-3.36-13.62-2.95-3.73-7.68-6.14-14.04-7.15Z"/>
      <path class="cls-7" d="M160.71,225.47l-77.85-36.09,9.52-20.53h0c2.34-5.04,2.93-9.6,1.75-13.54-1.22-4.12-4.05-7.32-8.17-9.23-4.1-1.9-8.34-2.02-12.28-.36-3.82,1.62-6.95,5.03-9.32,10.14l-33.85,73.03c-2.25,4.86-2.83,9.33-1.72,13.27,1.17,4.17,4.04,7.42,8.29,9.39,4.1,1.9,8.33,2.04,12.22.38,3.78-1.6,6.88-4.98,9.23-10.04l9.52-20.53,77.85,36.09c3.81,1.77,7.37,2.65,10.64,2.65,1.75,0,3.42-.25,5-.76,4.61-1.48,8.19-4.72,10.34-9.36,2.13-4.59,2.28-9.36.44-13.81-1.8-4.36-5.71-7.96-11.61-10.69Z"/>
      <path class="cls-7" d="M198.53,72.11l19.27-11.87c4.73-2.91,7.74-6.39,8.94-10.33,1.26-4.11.66-8.34-1.72-12.21-2.37-3.84-5.84-6.29-10.04-7.08-4.07-.76-8.57.35-13.37,3.31l-68.54,42.21c-4.56,2.81-7.51,6.21-8.76,10.11-1.32,4.13-.72,8.42,1.73,12.4,2.37,3.85,5.82,6.29,9.99,7.06,4.04.76,8.49-.35,13.24-3.28l19.27-11.87,45,73.06c3.38,5.49,7.42,8.92,12,10.21,1.51.42,3.04.64,4.55.64,3.16,0,6.3-.92,9.24-2.73,4.31-2.65,7.07-6.55,7.99-11.27.9-4.63-.37-9.79-3.78-15.32l-45-73.06Z"/>
      <path class="cls-7" d="M383.97,3.76c-3.29-2.78-7.25-4.03-11.75-3.72-2.84.2-5.32.94-7.38,2.19-1.93,1.18-3.64,2.8-5.08,4.79-1.21,1.67-2.31,3.46-3.27,5.33-.85,1.65-1.9,3.69-3.13,6.07l-17.13,32.37-21.25-29.64c-4.21-5.9-7.31-9.78-9.48-11.85-2.97-2.83-6.97-4.09-11.87-3.75-4.58.32-8.41,2.11-11.39,5.32-3.02,3.25-4.46,7.22-4.16,11.47.18,2.52,1.06,5.19,2.71,8.16,1.39,2.52,3.58,5.81,6.73,10.14l32.88,43.89,2.67,38.08c.46,6.49,2.43,11.42,5.86,14.65,3.17,2.99,7.2,4.55,11.72,4.55.47,0,.94-.02,1.42-.05,5.04-.35,9.31-2.53,12.37-6.31,3.02-3.72,4.32-8.88,3.86-15.32l-2.67-38.07,27.11-48.74c2.47-4.33,4.16-7.66,5.18-10.18,1.2-2.99,1.71-6,1.5-8.97-.28-4.05-2.17-7.65-5.45-10.43Z"/>
      <path class="cls-7" d="M554.07,30.18c-2.34-4.21-6.22-7.1-11.22-8.34-4.99-1.24-9.74-.47-13.75,2.23-3.89,2.63-6.65,7.09-8.19,13.27l-7.45,29.9-43.33-10.8,7.45-29.9c1.56-6.26,1.19-11.54-1.12-15.7-2.34-4.21-6.22-7.1-11.22-8.35-5.12-1.27-9.92-.5-13.88,2.25-3.81,2.64-6.52,7.1-8.06,13.26l-23.82,95.56c-1.53,6.16-1.22,11.39.92,15.54,2.23,4.32,6.08,7.27,11.15,8.53,4.95,1.24,9.72.49,13.79-2.15,4.02-2.61,6.85-7.11,8.41-13.37l8.96-35.94,43.33,10.8-8.96,35.94c-1.53,6.16-1.22,11.38.92,15.54,2.23,4.32,6.08,7.27,11.15,8.53,1.56.39,3.09.58,4.59.58,3.28,0,6.41-.92,9.2-2.73,4.02-2.61,6.85-7.11,8.41-13.37l23.82-95.56c1.56-6.26,1.19-11.54-1.12-15.7Z"/>
      <path class="cls-7" d="M644.33,225.6l33.64-80.2c1.74-3.92,3.14-7.16,4.16-9.62,1.13-2.73,1.96-5.56,2.47-8.41.58-3.25.41-6.59-.53-9.93-.97-3.44-3.03-6.75-6.14-9.83-3.07-3.05-6.37-5.07-9.82-6.01-3.36-.92-6.74-1.04-10.05-.38-2.9.58-6.15,1.67-9.68,3.22l-8.24,3.64-79.85,35.05c-3.36,1.44-5.89,2.61-7.71,3.58-2.13,1.12-3.99,2.48-5.54,4.05-3.03,3.05-4.57,7.16-4.44,11.87.13,4.69,1.81,8.67,5,11.84,4.76,4.73,9.32,5.21,12.3,4.78,3.26-.47,7.88-2.12,14.54-5.19l12.38-5.71,31.15,30.93-5.42,12.19-.05.12c-.81,1.95-1.72,4.26-2.73,6.87-1.16,3.01-1.84,5.44-2.06,7.42-.26,2.27-.01,4.54.73,6.75.75,2.24,2.13,4.36,4.09,6.31,3.37,3.34,7.48,5.04,12.23,5.04h.06c4.78-.02,8.72-1.56,11.72-4.58,2.49-2.51,4.96-6.9,7.77-13.79ZM645.17,140.43l-14.21,30.84-16.39-16.27,30.59-14.57Z"/>
      <path class="cls-7" d="M656.02,348.31c6.58,4.74,13.8,7.49,21.46,8.18,1.77.16,3.63.24,5.58.24,6,0,12.83-.75,20.39-2.23l58.98-11.61c6.33-1.25,10.95-3.83,13.74-7.68,2.82-3.9,3.78-8.64,2.79-13.7-1-5.1-3.71-9.09-7.83-11.55-4-2.39-9.22-2.97-15.52-1.73l-60.82,11.97c-9.32,1.84-16.53,1.51-21.44-.96-4.47-2.25-7.55-7.49-9.14-15.56-1.19-6.03-1.08-10.85.31-14.32,1.35-3.35,3.61-5.9,6.93-7.78,3.81-2.16,8.93-3.89,15.24-5.13l60.32-11.87c6.25-1.23,10.84-3.76,13.66-7.52,2.9-3.87,3.89-8.66,2.87-13.87-.99-5.04-3.71-9.02-7.86-11.5-4.03-2.41-9.24-3.01-15.49-1.78l-58.98,11.61c-9.7,1.91-18,4.67-24.67,8.2-6.98,3.7-12.49,8.52-16.36,14.33-3.87,5.8-6.22,12.8-6.99,20.8-.74,7.66-.13,16.54,1.81,26.39,1.65,8.39,4.16,15.67,7.46,21.64,3.4,6.16,7.95,11.34,13.55,15.42Z"/>
      <path class="cls-7" d="M779.64,442.42c-.26-10.2-2.06-19.22-5.35-26.81-3.43-7.9-8.32-14-14.55-18.14-6.28-4.18-13.49-6.21-21.37-5.99-8.27.21-15.3,2.51-20.9,6.83-5.42,4.18-9.69,9.79-12.67,16.67-2.78,6.42-5.18,14.39-7.11,23.73-1.32,6.55-2.6,11.82-3.81,15.68-1.02,3.27-2.53,5.94-4.49,7.96-1.61,1.66-3.69,2.47-6.55,2.54-3.63.07-6.56-1.43-9.21-4.79-2.92-3.71-4.48-8.82-4.64-15.19-.12-4.62.48-8.32,1.76-10.97,1.3-2.67,2.88-4.67,4.86-6.11,2.31-1.69,5.29-3.32,8.83-4.84,4.07-1.71,7.1-3.75,9.29-6.24,2.47-2.82,3.72-6.37,3.62-10.26-.12-4.61-1.88-8.62-5.09-11.6-3.22-2.98-7.08-4.45-11.49-4.32-6.23.16-12.57,2.38-18.85,6.59-6.14,4.12-11.08,9.48-14.67,15.94-4.86,8.88-7.16,20.06-6.83,33.22.28,10.96,2.4,20.58,6.29,28.61,4.01,8.25,9.55,14.58,16.48,18.81,6.6,4.03,14,6.07,22.03,6.07.41,0,.81,0,1.22-.02,7.08-.18,13.2-1.66,18.18-4.39,4.98-2.73,9.11-6.52,12.29-11.25,2.99-4.45,5.5-9.84,7.49-16.02,1.88-5.89,3.6-12.55,5.08-19.7,1.25-5.55,2.22-9.58,2.88-11.96.58-2.12,1.42-4.26,2.51-6.36.91-1.77,1.99-3.15,3.2-4.11.93-.74,2.03-1.1,3.45-1.13,1.5-.02,3.79.31,6.39,3.76,2.32,3.06,3.56,7.38,3.7,12.82.19,7.24-1.26,10.64-2.5,12.22-2.1,2.67-5.19,5.06-9.19,7.11l-.18.1c-3.74,2.12-6.43,4.11-8.21,6.06-2.31,2.52-3.42,5.94-3.31,10.16.12,4.6,2.06,8.61,5.61,11.58,3.42,2.87,7.31,4.26,11.56,4.15,4.05-.1,8.18-1.24,12.27-3.38,4.01-2.1,7.81-5.34,11.29-9.63,3.44-4.25,6.18-9.56,8.12-15.79,1.92-6.15,2.78-13.41,2.57-21.59Z"/>
    </g>
    <g>
      <path class="cls-6" d="M256.39,437.03c10.03-3.1,20.38-1.92,30.61-2.25,7.28-.24,10.65-1.75,10.58-5.63-.11-6.1-5.53-6.17-9.4-6.67-11.65-1.52-23.39-3.3-35.15-.84-4.04.85-3.85-1.15-3.56-4.06,3.13-31.43,19.22-55.48,42.68-75.37,22.37-18.96,49.01-27.16,77.53-30.19,30.07-3.19,59.63-.69,87.8,10.97,19.53,8.09,35.33,21.53,49.3,37.19,14.84,16.65,22.7,36.26,24.9,58.34.25,2.54.12,3.25-2.62,2.89-11.61-1.54-23.22-.31-34.78.69-6.13.53-10,3.59-9.39,6.88.98,5.27,5.53,4.72,9.41,5.27,9.84,1.39,19.91.22,29.64,2.75.41,2.43-.72,4.31-1.83,6.38-2.46,4.6-7.35,7.36-9.11,12.42-7.72-2.89-15.07-6.59-22.36-10.41-2.08-1.09-4.2-2.14-6.58-1.08-4.62,2.05-5.28,7.37-.98,10.25,4.64,3.11,9.69,5.59,14.51,8.45,2.36,1.4,5.21,2.17,6.75,4.74-12.87,9.48-26.31,17.93-41.35,23.62-30.39,11.48-61.8,15.02-93.93,11.34-25.4-2.91-49.93-9.25-72.06-22.67-6.41-3.89-13.13-7.61-17.64-13.99,6.26-4.7,13.52-7.73,20.05-11.96,2.13-1.38,3.48-3.24,2.69-5.85-.77-2.56-2.9-3.47-5.4-3.58-2.75-.12-5.17.97-7.59,2.11-6.59,3.11-13.2,6.18-19.8,9.27-5.56-5.48-9.8-11.86-12.93-19ZM392,399.9c-2.99,0-5.99-.09-8.98.03-2.44.09-4.05,1.55-4.65,3.83-.6,2.27-.03,4.76,2.12,5.61,5.34,2.12,3.48,4.73,1.06,7.74-1.98,2.47-4.19,4.67-6.62,6.7-8.14,6.79-18.82,6.94-26.67.02-3.31-2.92-7.4-3.81-10.42-1.53-3.72,2.81-1.65,6.92.56,10.25,6.41,9.66,19.51,14.09,31.86,10.82,8.27-2.19,14.34-7.38,19.08-14.24,1.62-2.34,2.77-3.09,4.53-.16.93,1.54,2.31,2.83,3.55,4.17,9.89,10.69,23.08,13.97,35.76,8.73,5.71-2.36,10.08-6.38,12.88-11.91,1.3-2.58,2.35-5.83-.54-7.66-2.8-1.78-6.86-2.22-9.28.35-11.48,12.17-29.58,4.78-35.69-7.55-1.5-3.03-1.41-4.18,1.8-5.3,2.78-.97,3.32-3.56,2.84-6.21-.5-2.81-2.77-3.52-5.19-3.63-2.66-.12-5.32-.03-7.98-.04ZM363.34,387.54c.02-4.25-1.28-7.82-3.08-11.19-8.88-16.63-23.25-23.19-41.4-21.22-16.79,1.83-27.54,11.93-33.42,27.44-1.34,3.53-1.98,7.18,2.3,9.51,3.74,2.04,8.32,1.14,10.95-2.38,2.5-3.35,5.32-6.39,8.39-9.19,10.05-9.16,23.65-9.06,33.65.16,2.96,2.73,5.18,6,7.41,9.32,2.91,4.34,7.39,3.8,11.69,2.89,2.93-.62,3.9-2.81,3.53-5.34ZM457.92,354.96c-20-.09-33.27,11.79-38.28,27.49-.92,2.89-2.06,6.45.69,8.87,2.84,2.5,6.46,1.87,9.97.98,2.22-.57,3.04-2.15,4.14-3.85,8.59-13.33,22.93-20.53,37.91-9.45,3.62,2.68,6.66,5.98,9.47,9.5,1.03,1.29,2.02,2.68,3.31,3.66,3.38,2.59,7.03,1.74,10.26-.15,3.15-1.84,1.9-4.9,1.13-7.57-5.11-17.57-20.53-29.33-38.6-29.49ZM508.69,394.68c-11.5,2.31-22.56,5.9-32.7,11.97-2.41,1.44-3.02,3.92-1.98,6.54,1.11,2.79,3.52,3.32,6.16,2.89,1.29-.21,2.51-.81,3.76-1.23,9.65-3.29,19.07-7.35,29.24-8.92,1.79-.28,4.22.15,4.91-1.6.7-1.79-.58-3.8-1.86-5.39-1.93-2.4-4.13-4.3-7.54-4.25ZM271.83,394.95c-4.32.41-5.97,4.07-7.41,7.8-.84,2.17-.18,3.43,2.51,3.1,2.69-.33,5.19.59,7.71,1.49,8.36,2.98,16.82,5.69,25.14,8.8,3.88,1.45,6.01-.15,7.57-3.29,1.67-3.36-.34-5.33-3.01-6.78-2.31-1.26-4.74-2.33-7.14-3.43-7.95-3.66-16.05-6.85-25.37-7.68Z"/>
      <path class="cls-6" d="M544.86,647c-4.11-1.08-6.64-3.87-9.87-5.33-2.3-1.84-4.6-3.67-6.91-5.5-2.23-1.77-3.02-1.13-3.22,1.62-.41,5.45-1.2,10.86-2.97,16.09-4.82,14.19-14.18,24.98-25.4,34.46-2.31,1.96-4.66,3.24-7.67,3.91-6.2,1.36-12.5,2.59-19.09,5.93,8.49,4.01,16.43,7.28,20.41,15.51,1.58,6.56,1.14,13.15.16,19.73-.14.96-.34,2.16-.98,2.74-1.84,1.67-4.14,3.66-6.5,2.94-1.61-.5-1.28-3.44-1.5-5.37-.36-3.06.54-6.3-1.73-9.08-3.22-3.94-5.5-3.91-7.72.66-2.71,5.59-3.67,11.68-4.26,17.81-.1,1.12.33,2.39-1.41,2.54-1.41-.84-2.26-2.25-2.07-3.72.67-5.27-2.34-9.27-4.4-13.61-3.13-3.64-5.43-3.72-8.79.15-4.79,5.53-6.78,12.4-8.74,19.25-.66,2.3-.66,4.87-3.12,7.5-.08-6.29,1.63-11.38,2.95-16.46,8.41-32.44,14.4-65.49,24.13-97.59,4.12-13.6,9.36-26.79,18.63-37.92,1.45-1.74.83-2.78-.77-4.05-4.08-3.26-9.28-3.51-13.77-.45-5.12,3.48-8.35,8.45-11.14,13.81-10.33,19.85-15.69,41.35-20.93,62.9-2.93,12.06-5.78,24.14-8.78,36.18-.58,2.33-1.66,4.54-2.51,6.8-5.52,1.96-10.17,5.53-14.81,8.86-13.29,9.5-26.3,9.89-40.07.93-5.59-3.64-10.76-8.32-17.62-9.78-5.05-12.34-7.11-25.47-10.11-38.34-5.21-22.29-10.61-44.51-21-65.1-2.85-5.64-6.16-10.97-11.01-15.22-3.28-2.89-6.97-3.77-11.08-3.02-5.82,1.06-7.07,4.28-3.51,8.74,10.83,13.54,16.23,29.58,20.41,46,6.36,24.97,12.11,50.1,18.14,75.16.95,3.97,1.99,7.91,2.98,11.86-.22,1.39.46,3.02-1.11,4.04-2.26-4.63-3.53-9.8-7.23-13.67-3.96-4.14-6.08-4.2-9.72-.35-1.37,1.18-1.34,2.73-1.6,4.41-.51,3.33-1.71,6.56-6.31,5.53-1.47-4.37-1.77-9.08-3.92-13.26-2.34-4.55-4.45-4.73-7.56-.67-2.13,2.78-2.59,5.97-2.75,9.34-.08,1.76-.66,3.5-1.04,5.36-5.45-2-8.28-5.32-7.82-11.26.34-4.45.05-8.94.04-13.41,4.63-6.63,10.32-11.91,18.27-14.31.77-.24,1.6-.77,1.39-1.78-.24-1.12-1.33-1.46-2.25-1.7-6.06-1.58-11.81-4.47-18.29-4.31-1.09.02-2.3.29-2.96-1.16-1.22-2.66-3.79-4.08-5.88-5.87-13.68-11.65-22.1-26.14-24.36-44.1-.24-1.87.28-4.67-1.56-5.4-2.38-.94-4.09,1.53-5.81,2.99-.71.61-1.62,1.24-1.41,2.44-3.34.96-5.8,3.82-10.01,4.44,3.19-9.78,5.91-19.43,7.73-29.25,4.96-26.75,16.67-50.12,34.33-70.69,2.32-2.71,3.8-3.46,7.31-1.34,16.53,9.99,34.72,15.37,53.74,18.17,1.47.22,2.94.59,4.42.64,4.48.15,6.73,2.34,8.7,6.54,6.9,14.71,18.77,23.36,35.13,23.67,17.32.33,30.84-7.52,38.67-23.22,2.61-5.24,5.85-6.99,11.22-7.69,19.85-2.59,38.97-7.77,56.33-18.12,3.28-1.95,4.73-1.06,6.93,1.48,18.71,21.59,30.72,46.29,35.06,74.61,1.37,8.99,5.16,17.26,7.97,26.36Z"/>
      <path class="cls-3" d="M279.37,466.04c4.51,6.38,11.23,10.1,17.64,13.99,22.13,13.42,46.66,19.76,72.06,22.67,32.13,3.68,63.54.15,93.93-11.34,15.04-5.69,28.48-14.14,41.35-23.62,2.2.36,3.9,1.74,5.7,2.88,7.28,4.6,7.47,5,2.06,11.94-8.4,10.78-19.96,17.46-31.96,23.24-17.73,8.54-36.42,14.07-56.03,16.37-2.09.24-3.33-.1-4.77-1.52-15.25-15.09-40.46-16.59-56.5-.74-1.92,1.9-3.95,2.28-6.66,1.92-28.64-3.83-55.04-13.19-77.95-31.24-3.92-3.09-7.38-6.7-10.37-10.74-2.04-2.75-2.19-4.91,1.18-6.88,3.57-2.09,6.89-4.59,10.32-6.91Z"/>
      <path class="cls-6" d="M458.97,310c-2.83,2.24-12.68,1.9-15.19-.56-1.83-1.8-.05-3.04.85-4.23,4.46-5.87,9.84-10.8,15.75-15.17,10.49-7.75,21.7-14.07,34.6-16.88,8.2-1.78,13.06.47,17.17,7.97,5.08,9.27,7.67,19.41,9.48,29.69,2.41,13.67,2.24,27.41-.6,41.06-.5,2.42-1.01,4.84-2.98,7.69-2.65-5.7-8.58-8.86-8.81-15.6,1.47-10.07.66-20.09-.72-30.08-.98-7.05-2.08-14.11-5.54-20.51-2.93-5.42-6.24-7.06-11.89-4.98-7.31,2.69-14.25,6.21-20.1,11.54l-.04.02c-2.11.78-3.64,2.27-4.98,4.01l.02-.02c-2.65,1.66-5,3.68-7.02,6.07Z"/>
      <path class="cls-3" d="M354.39,718.45c6.86,1.46,12.03,6.14,17.62,9.78,13.77,8.96,26.78,8.57,40.07-.93,4.65-3.32,9.29-6.9,14.82-8.86-2.77,12.77-6.64,25.29-8.81,38.2-.4,2.38-2.41,1.97-3.93,2.15-15.53,1.87-31.08,2.28-46.64.48-1.75-.2-3.75-.4-4.28-2.69-2.95-12.71-5.89-25.42-8.83-38.13Z"/>
      <path class="cls-6" d="M272.89,344.54c-1.85,4.75-6.16,7.66-8.88,11.8-1.35,2.05-2.2.38-2.78-1.3-1.91-5.56-2.31-11.38-2.73-17.12-1.28-17.56,1.72-34.56,7.81-51.04.63-1.71,1.27-3.45,2.21-4.99,5.8-9.65,10.63-11.18,19.54-8.34,18.77,5.98,34.67,16.2,47.63,30.98,3.48,3.96,3.05,4.95-2.18,6.33-4.77,1.26-9.44,1.95-13.12-2.51-8.65-7.86-17.9-14.83-28.85-19.21-6.71-2.68-11.26-1.29-13.85,5.25-5.98,15.08-7.88,30.76-5.41,46.88.16,1,.33,2.01.49,3.01,0,0-.15.24-.15.24l.26.02Z"/>
      <path class="cls-3" d="M490.14,713.69c-3.99-8.23-11.92-11.5-20.41-15.51,6.59-3.34,12.89-4.57,19.08-5.94,3.01-.66,5.36-1.95,7.68-3.91,11.22-9.48,20.58-20.27,25.39-34.46,1.78-5.23,2.56-10.64,2.97-16.1.2-2.74.99-3.38,3.22-1.62,2.31,1.83,4.61,3.66,6.91,5.5.03,10.13.11,20.27.08,30.4-.02,6.07-1.99,7.51-7.53,4.99-3.94-1.8-5.86-1.52-7.02,3.11-.65,2.58-2.84,4.83-4.52,7.08-1.69,2.27-1.16,3.11,1.54,3.35,2.11.19,4.18.73,6.23,1.11,0,.48.06.67,0,.81q-4.42,9.53-14.33,6.8c-2.32-.64-4.59-1.45-8.18-2.6,4.21,6.5,7.13,12.43,12.44,16.45,3.19,2.42,2.63,3.97-.19,5.89-.95.65-1.71,1.58-2.63,2.29-1.84,1.42-3.57,3.6-5.62,3.97-3.13.56-2.24-3.38-3.81-4.85-3.28-3.08-6.91-5.56-11.3-6.77Z"/>
      <path class="cls-3" d="M247.33,641.39c-.21-1.2.7-1.83,1.41-2.43,1.72-1.46,3.43-3.93,5.81-2.99,1.84.73,1.33,3.53,1.56,5.4,2.26,17.96,10.68,32.45,24.36,44.1,2.1,1.79,4.66,3.21,5.88,5.87.66,1.45,1.87,1.18,2.96,1.16,6.48-.16,12.23,2.73,18.29,4.32.92.24,2.01.57,2.25,1.7.22,1.01-.62,1.54-1.39,1.78-7.95,2.41-13.64,7.68-18.27,14.31-4.91.79-9.19,2.75-11.27,7.53-1.51,3.48-3.21,3.09-5.51,1.03-.74-.66-1.56-1.23-2.37-1.81-6.75-4.94-6.51-4.73-1.17-10.76,3.36-3.8,5.86-8.35,9.2-13.22-4.47,1.23-8.38,1.92-11.97,3.4-3.64,1.5-5.5.29-7.08-2.82-1.04-2.05-2.4-3.94-3.55-5.8,2.23-2.45,7-.39,7.57-3.58.41-2.27-2.03-5.05-3.16-7.62-3.13-7.07-1.61-6.46-9.1-3.87-3.06,1.06-5.23,1.17-5.4-2.94-.45-10.94-1.15-21.88.96-32.74Z"/>
      <path class="cls-6" d="M366.27,548.73c.4-10.97,10.46-21.52,21.05-22.09,14.16-.75,25.31,7.21,27.04,19.33.23,1.59.52,3.17.78,4.75-1.69-.02-3.31.09-4.02,2.01-1.56-.59-2.45.69-3.5,1.35-13.05,8.19-24.96,7.77-37.44-1.37-1.52-1.12-3.14-2.13-3.91-3.98Z"/>
      <path class="cls-4" d="M436.61,548.85c-5.74-.3-3.75-5.81-4.91-8.96-1.2-3.27,2.14-2.95,4.13-3.18,18.43-2.15,35.89-7.58,52.62-15.47.75-.35,1.48-.76,2.25-1.05,1.83-.71,3.62-.74,5.04.83,1.66,1.83.42,3.47-.66,4.9-2.73,3.62-6.16,6.49-10.19,8.58-15.04,7.76-31.09,12.12-48.28,14.37Z"/>
      <path class="cls-4" d="M343.08,548.87c-19.53-4.07-39.55-7.02-55.34-21.15-.86-.77-1.64-1.65-2.37-2.56-1.24-1.56-1.76-3.32-.42-5.02,1.22-1.54,2.94-1.42,4.55-.65,4.34,2.07,8.57,4.37,12.98,6.28,13.49,5.84,27.59,9.55,42.24,10.68,4.85.37,4.67,2.93,4.27,6.32-.42,3.51-.83,6.9-5.92,6.1Z"/>
      <path class="cls-3" d="M411.13,552.73c.71-1.93,2.33-2.04,4.02-2.01,1.18,4.46-.56,8.27-2.65,12.02-5.63,10.12-18.24,16.09-27.94,13.17-12.16-3.65-19.38-14.39-18.28-27.19.77,1.85,2.39,2.86,3.91,3.98.7,6.78,5.15,11.51,10.63,13.74,12.77,5.21,25.42-.98,30.31-13.72Z"/>
      <path class="cls-3" d="M256.39,437.03c3.13,7.14,7.37,13.52,12.93,19-11.94,8.76-13.19,8.35-16.95-5.7-.6-2.23-.97-4.53-1.43-6.8-1.23-6.01-.87-6.43,5.45-6.5Z"/>
      <path class="cls-3" d="M513,455.79c1.76-5.06,6.66-7.82,9.11-12.42,1.11-2.07,2.24-3.95,1.83-6.38,7.11-.04,7.31.33,6.34,7.22-.78,5.5-2.66,10.57-5,15.54-1.12,2.39-2.58,2.9-4.65,1.29-2.44-1.9-5.98-2.2-7.62-5.25Z"/>
      <path class="cls-2" d="M313.23,738.5c4.6,1.03,5.81-2.21,6.32-5.53.26-1.68.23-3.23,1.6-4.41-.42,6.73.72,13.39.95,20.15q-7.97-1.97-8.86-10.21Z"/>
      <path class="cls-3" d="M459.73,728.33c2.06,4.34,5.06,8.33,4.4,13.61-.19,1.47.66,2.88,2.07,3.71-1.39,2.79-4.28,2.58-6.68,3.33-1.58.49-1.75-.85-1.46-1.67,2.19-6.2.08-12.76,1.67-18.99Z"/>
      <polygon class="cls-1" points="465.98 303.94 465.98 303.95 465.97 303.95 465.98 303.94"/>
      <path class="cls-2" d="M338.1,742.58c1.57-1.02.89-2.65,1.11-4.04,1.61,3.97,2.48,8.04,1.66,13.81-1.18-4.14-1.97-6.95-2.77-9.76Z"/>
      <polygon class="cls-4" points="272.89 344.54 272.63 344.52 272.78 344.28 272.89 344.54"/>
      <path class="cls-5" d="M392,399.91c2.66,0,5.33-.09,7.98.03,2.43.11,4.69.82,5.19,3.63.47,2.65-.06,5.23-2.84,6.21-3.21,1.12-3.3,2.27-1.8,5.3,6.11,12.33,24.21,19.72,35.69,7.55,2.42-2.56,6.48-2.13,9.28-.35,2.89,1.84,1.85,5.08.54,7.66-2.79,5.54-7.17,9.55-12.88,11.91-12.67,5.24-25.87,1.97-35.76-8.73-1.24-1.34-2.62-2.62-3.55-4.17-1.76-2.93-2.91-2.17-4.53.16-4.74,6.87-10.81,12.05-19.08,14.24-12.35,3.27-25.45-1.16-31.86-10.82-2.21-3.33-4.28-7.44-.56-10.25,3.02-2.28,7.11-1.4,10.42,1.53,7.85,6.93,18.54,6.77,26.67-.02,2.43-2.03,4.64-4.23,6.62-6.7,2.42-3.01,4.28-5.62-1.06-7.74-2.16-.86-2.72-3.34-2.12-5.61.6-2.27,2.22-3.73,4.65-3.83,2.99-.11,5.99-.03,8.98-.02Z"/>
      <path class="cls-5" d="M363.34,387.54c.38,2.53-.6,4.72-3.53,5.34-4.3.91-8.78,1.45-11.69-2.89-2.23-3.32-4.44-6.59-7.41-9.32-10-9.22-23.6-9.32-33.65-.16-3.07,2.8-5.89,5.84-8.39,9.19-2.62,3.52-7.21,4.42-10.95,2.38-4.28-2.33-3.64-5.98-2.3-9.51,5.88-15.5,16.64-25.61,33.42-27.44,18.14-1.97,32.52,4.59,41.4,21.22,1.8,3.37,3.11,6.94,3.08,11.19Z"/>
      <path class="cls-5" d="M553.62,677.31c.19-.65.41-1.51.65-2.55-.21.84-.43,1.69-.65,2.55ZM554.51,673.68c-.05.23-.1.46-.15.67.13-.49.25-.97.36-1.45.02-.05.03-.1.04-.14,1.36-5.58,2.43-10.78,3.27-15.55l1.24-9.53c1.91-18.08-.63-35.62-5.43-52.92-6.52-23.52-18.22-44.14-35.73-61.29-2.37-2.32-3.55-4.31-1.66-7.73,2.01-3.64,2.01-7.39-.96-11.12-3.37-4.24-2.5-9.14,1.46-13.1,17.16-17.2,28.92-37.39,31.68-61.75,2.33-20.65-.06-40.96-10.09-59.59-3.05-5.66-3.87-10.71-2.22-16.99,6.95-26.55,6.48-52.93-3.39-78.81-2.43-6.38-5.58-12.45-9.43-18.08-6.85-10.03-16.99-11.92-27.88-9.84-21.74,4.15-40.56,14.42-56.78,29.33-12.39,11.4-12.21,11.21-28.64,9.1-15.21-1.96-30.5-1.63-45.68.84-6.74,1.1-12.11.4-17.7-5.16-16.89-16.8-36.99-28.66-60.5-33.94-13.73-3.09-23.65,1.39-30.63,13.67-12.29,21.59-16.41,44.88-14.64,69.54.73,10.2,2.95,20,5.4,29.81.51,2.04-.02,3.44-.97,5.08-10.29,17.74-14.56,37.1-13.91,57.36.75,23.13,9.81,43.15,25.04,60.45,2.41,2.74,4.77,5.54,7.26,8.21,5.03,5.39,5.63,7.68,1.84,14.04-2.57,4.33-3.1,8.33-.5,12.61,1.92,3.15-.21,4.98-2.1,6.83-9.84,9.59-17.71,20.55-24.18,32.72-9.11,17.13-14.21,35.33-16.6,54.45-2.1,16.85-1,33.44,3.65,49.79.36,1.29.67,2.6.95,3.9.08.31.14.62.21.93,0,.03.01.05.01.08.89,6.5,4.58,18.44,8.08,28.85,4.43,13.14,12.72,24.62,23.81,32.93,13.77,10.33,28.91,19.11,45.45,26.27,24.81,10.75,50.83,16.06,77.67,17.26,16.57.74,33.06-.76,49.41-3.91,31.71-6.1,60.86-18.23,86.94-37.14,6.72-4.88,13.12-10.02,19.18-15.41,2.45-2.18,4.23-5,5.1-8.16,2.78-10.08,9.12-33.1,9.93-36.14,0,0,1.36-5.39,1.79-6.97ZM444.63,305.2c4.46-5.87,9.84-10.8,15.75-15.17,10.49-7.74,21.7-14.07,34.6-16.87,8.19-1.79,13.06.46,17.17,7.96,5.08,9.27,7.67,19.42,9.48,29.69,2.41,13.67,2.24,27.41-.6,41.06-.51,2.41-1.02,4.83-2.99,7.69-2.65-5.71-8.58-8.87-8.8-15.6-.04-5.29-5.09-8.19-6.2-12.96-.74-.95-1.48-1.89-2.23-2.84-2.64-.63-4.05-2.87-5.64-4.69-3.7-4.22-9.18-5.68-13.38-9.06-.29-.08-.57-.18-.85-.3-3.45.07-6.82-.26-9.88-2.09-.95-.08-1.91-.16-2.87-.24-3.36.92-6.25-.63-9.22-1.78-2.84,2.24-12.68,1.9-15.19-.57-1.83-1.79-.05-3.04.85-4.23ZM266.31,286.89c.63-1.71,1.28-3.45,2.21-5,5.8-9.65,10.63-11.18,19.54-8.34,18.77,5.99,34.67,16.2,47.63,30.98,3.48,3.96,3.05,4.95-2.17,6.34-4.77,1.26-9.44,1.94-13.12-2.52-.24,3.61-2.94,3.56-5.44,3.48-15.17-.49-26.46,6.73-36,17.73-3.05,3.51-3.81,8.18-6.67,11.71.16,1,.33,2.01.49,3.01l.11.26c-1.85,4.75-6.16,7.66-8.88,11.79-1.35,2.06-2.2.39-2.78-1.29-1.91-5.56-2.31-11.38-2.73-17.12-1.27-17.56,1.72-34.56,7.81-51.03ZM267.86,479.83c-2.04-2.75-2.18-4.91,1.18-6.88,3.57-2.09,6.89-4.59,10.32-6.91,6.26-4.7,13.52-7.73,20.06-11.96,2.12-1.38,3.48-3.24,2.69-5.86-.77-2.56-2.9-3.47-5.4-3.57-2.75-.12-5.17.96-7.59,2.1-6.59,3.11-13.2,6.19-19.8,9.27-11.94,8.77-13.19,8.36-16.95-5.7-.6-2.23-.97-4.53-1.43-6.8-1.23-6.01-.87-6.43,5.45-6.5,10.03-3.1,20.38-1.92,30.61-2.25,7.28-.24,10.65-1.75,10.58-5.64-.11-6.1-5.53-6.16-9.4-6.67-11.65-1.52-23.39-3.3-35.15-.84-4.03.85-3.85-1.14-3.56-4.05,3.13-31.43,19.22-55.49,42.69-75.38,22.37-18.96,49.01-27.16,77.52-30.19,30.07-3.19,59.63-.69,87.81,10.97,19.52,8.09,35.33,21.53,49.29,37.19,14.85,16.65,22.71,36.26,24.9,58.35.25,2.53.12,3.25-2.61,2.88-11.62-1.54-23.22-.31-34.79.7-6.13.53-10,3.59-9.39,6.87.98,5.27,5.53,4.72,9.41,5.27,9.84,1.39,19.91.22,29.64,2.75,7.11-.04,7.31.33,6.34,7.22-.78,5.51-2.66,10.57-5,15.55-1.13,2.39-2.58,2.9-4.66,1.29-2.44-1.9-5.97-2.21-7.62-5.25-7.72-2.89-15.07-6.59-22.36-10.42-2.09-1.09-4.2-2.14-6.58-1.08-4.61,2.05-5.28,7.37-.98,10.26,4.64,3.11,9.69,5.59,14.51,8.45,2.36,1.4,5.2,2.16,6.75,4.74,2.2.36,3.9,1.74,5.7,2.88,7.29,4.61,7.47,5,2.06,11.94-8.4,10.79-19.95,17.46-31.96,23.24-17.73,8.54-36.42,14.07-56.03,16.37-2.09.24-3.33-.1-4.77-1.52-15.25-15.1-40.46-16.6-56.5-.75-1.92,1.9-3.95,2.28-6.66,1.92-28.64-3.84-55.04-13.19-77.95-31.25-3.91-3.08-7.38-6.7-10.37-10.74ZM495.08,525.91c-2.74,3.62-6.16,6.49-10.19,8.57-15.04,7.76-31.09,12.12-48.28,14.37-5.74-.3-3.75-5.81-4.91-8.96-1.2-3.27,2.14-2.95,4.13-3.18,18.43-2.15,35.88-7.58,52.62-15.48.75-.35,1.48-.75,2.25-1.05,1.83-.71,3.62-.74,5.04.83,1.66,1.83.42,3.47-.66,4.9ZM412.49,562.74c-5.63,10.12-18.24,16.08-27.94,13.17-12.16-3.65-19.37-14.39-18.28-27.19.4-10.97,10.46-21.52,21.05-22.08,14.16-.76,25.3,7.21,27.04,19.32.23,1.59.52,3.17.78,4.75,1.19,4.47-.56,8.27-2.65,12.03ZM348.99,542.77c-.42,3.5-.83,6.9-5.92,6.1-19.52-4.07-39.55-7.02-55.33-21.15-.87-.78-1.65-1.66-2.37-2.56-1.24-1.56-1.76-3.32-.42-5.02,1.22-1.54,2.94-1.42,4.55-.65,4.34,2.07,8.57,4.37,12.98,6.28,13.5,5.83,27.59,9.55,42.24,10.68,4.85.37,4.68,2.93,4.27,6.32ZM534.99,641.66c.03,10.13.11,20.27.07,30.4-.02,6.07-1.99,7.51-7.53,4.99-3.94-1.79-5.86-1.52-7.02,3.11-.65,2.58-2.84,4.82-4.52,7.08-1.7,2.27-1.17,3.11,1.54,3.35,2.11.19,4.18.74,6.23,1.12,0,.48.05.67-.01.81q-4.42,9.52-14.33,6.79c-2.32-.64-4.59-1.45-8.18-2.6,4.21,6.51,7.13,12.43,12.44,16.45,3.19,2.42,2.63,3.97-.19,5.89-.95.65-1.71,1.58-2.62,2.29-1.84,1.42-3.58,3.6-5.62,3.97-3.13.56-2.24-3.39-3.81-4.86-3.28-3.08-6.91-5.55-11.3-6.77,1.57,6.57,1.14,13.15.15,19.73-.14.96-.34,2.16-.97,2.74-1.84,1.67-4.14,3.66-6.5,2.94-1.61-.5-1.28-3.44-1.51-5.36-.36-3.07.54-6.31-1.73-9.09-3.22-3.94-5.5-3.91-7.72.66-2.71,5.59-3.67,11.68-4.25,17.81-.11,1.12.33,2.39-1.41,2.54-1.39,2.79-4.29,2.58-6.68,3.33-1.59.49-1.76-.85-1.47-1.67,2.19-6.2.08-12.75,1.68-18.98-3.14-3.65-5.44-3.73-8.79.14-4.79,5.53-6.79,12.4-8.75,19.26-.66,2.29-.66,4.86-3.12,7.49-.08-6.28,1.63-11.38,2.95-16.46,8.41-32.44,14.41-65.48,24.13-97.59,4.12-13.6,9.37-26.79,18.64-37.92,1.44-1.73.83-2.78-.77-4.05-4.08-3.25-9.28-3.5-13.78-.44-5.11,3.47-8.35,8.45-11.13,13.8-10.34,19.85-15.69,41.36-20.93,62.9-2.94,12.06-5.79,24.14-8.79,36.18-.58,2.33-1.65,4.54-2.5,6.8-2.77,12.77-6.64,25.29-8.82,38.2-.4,2.39-2.41,1.97-3.93,2.15-15.53,1.87-31.08,2.28-46.64.48-1.75-.2-3.75-.4-4.28-2.69-2.95-12.71-5.89-25.42-8.83-38.13-5.05-12.34-7.11-25.47-10.12-38.34-5.2-22.29-10.61-44.5-21-65.1-2.84-5.64-6.15-10.96-11-15.22-3.29-2.88-6.97-3.76-11.09-3.01-5.82,1.05-7.07,4.28-3.51,8.73,10.83,13.55,16.24,29.58,20.41,46,6.36,24.98,12.11,50.11,18.14,75.17.95,3.96,1.99,7.9,2.99,11.85,1.61,3.97,2.48,8.04,1.66,13.81-1.18-4.14-1.98-6.95-2.78-9.76-2.26-4.64-3.52-9.81-7.22-13.67-3.96-4.14-6.08-4.21-9.72-.36-.43,6.73.72,13.4.94,20.15q-7.97-1.97-8.86-10.21c-1.46-4.37-1.77-9.08-3.92-13.26-2.34-4.55-4.44-4.72-7.55-.67-2.14,2.79-2.6,5.97-2.75,9.34-.09,1.77-.67,3.51-1.04,5.37-5.46-2.01-8.29-5.33-7.83-11.27.35-4.44.05-8.94.04-13.41-4.91.79-9.19,2.75-11.27,7.53-1.51,3.48-3.2,3.09-5.51,1.03-.74-.66-1.56-1.23-2.36-1.81-6.76-4.95-6.51-4.73-1.17-10.76,3.36-3.79,5.86-8.35,9.19-13.22-4.47,1.23-8.38,1.92-11.96,3.41-3.64,1.5-5.51.28-7.09-2.83-1.04-2.05-2.39-3.93-3.55-5.8,2.24-2.45,7-.39,7.57-3.58.42-2.27-2.02-5.05-3.16-7.62-3.13-7.06-1.61-6.46-9.1-3.87-3.06,1.06-5.23,1.17-5.4-2.94-.45-10.94-1.15-21.88.96-32.74-3.35.96-5.81,3.82-10.02,4.45,3.19-9.79,5.91-19.43,7.73-29.25,4.96-26.76,16.68-50.12,34.33-70.7,2.33-2.71,3.8-3.45,7.31-1.33,16.53,9.98,34.72,15.36,53.74,18.17,1.48.21,2.95.59,4.43.64,4.47.15,6.72,2.33,8.69,6.53,6.9,14.71,18.78,23.37,35.13,23.68,17.32.32,30.84-7.53,38.67-23.23,2.61-5.23,5.85-6.99,11.22-7.69,19.85-2.59,38.98-7.77,56.34-18.11,3.27-1.95,4.73-1.07,6.93,1.47,18.7,21.6,30.72,46.3,35.05,74.61,1.37,8.99,5.16,17.26,7.97,26.37-4.1-1.09-6.64-3.88-9.86-5.34ZM553.62,677.31c.19-.65.41-1.51.65-2.55-.21.84-.43,1.69-.65,2.55ZM554.51,673.68c-.05.23-.1.46-.15.67.13-.49.25-.97.36-1.45-.07.26-.14.52-.21.78Z"/>
      <path class="cls-5" d="M457.92,354.96c18.07.16,33.48,11.92,38.6,29.49.78,2.67,2.02,5.73-1.13,7.57-3.23,1.89-6.88,2.74-10.26.15-1.29-.98-2.28-2.38-3.31-3.66-2.8-3.52-5.84-6.82-9.47-9.5-14.98-11.09-29.33-3.88-37.91,9.45-1.1,1.7-1.92,3.28-4.14,3.85-3.51.9-7.14,1.52-9.97-.98-2.74-2.41-1.61-5.98-.69-8.87,5.01-15.71,18.28-27.58,38.28-27.49Z"/>
      <path class="cls-5" d="M508.69,394.68c3.41-.05,5.61,1.85,7.54,4.25,1.28,1.59,2.56,3.6,1.86,5.39-.69,1.75-3.12,1.32-4.91,1.6-10.17,1.57-19.59,5.63-29.24,8.92-1.25.43-2.47,1.02-3.76,1.23-2.65.43-5.05-.09-6.16-2.89-1.05-2.63-.43-5.1,1.98-6.54,10.14-6.06,21.2-9.65,32.7-11.97Z"/>
      <path class="cls-5" d="M271.83,394.95c9.32.84,17.42,4.03,25.37,7.68,2.4,1.1,4.82,2.17,7.14,3.43,2.66,1.45,4.67,3.42,3.01,6.78-1.56,3.14-3.68,4.74-7.57,3.29-8.31-3.1-16.77-5.82-25.14-8.8-2.52-.9-5.02-1.82-7.71-1.49-2.69.33-3.35-.93-2.51-3.1,1.44-3.73,3.1-7.39,7.41-7.8Z"/>
      <polygon class="cls-1" points="465.98 303.94 465.98 303.95 465.97 303.95 465.98 303.94"/>
      <path class="cls-5" d="M411.13,552.73c-4.9,12.74-17.54,18.93-30.31,13.72-5.49-2.24-9.94-6.96-10.63-13.74,12.48,9.14,24.4,9.57,37.44,1.37,1.05-.66,1.94-1.94,3.5-1.35Z"/>
      <path class="cls-4" d="M272.09,346.06c-1.52-1.03-1.44-4.97-1.63-7.06-.41-15.92,1.15-32.7,8.16-47.01,4.34-8.16,13.41-5.13,19.63-1.51,7.47,4.34,14.77,9.38,20.67,15.97,6.44,7.19,7.7,5.19-.44,7.22-2.67.67-5.9,1.23-8.68,1.71-12.19,1.9-22.68,9.67-30.47,20.27-1.92,2.64-3.49,5.89-5.13,8.59-.81,1.27-1.49,1.96-2.04,1.84l-.06-.02Z"/>
    </g>
    <path class="cls-4" d="M509.84,343.89c-.3.01-.74-.62-1.34-1.66-2.08-3.76-4.22-7.89-7.02-10.98-11.01-11.67-19.12-16.33-35.1-18.28-3.78-.43-9.31-1.52-5.04-5.79,8.34-6.93,26.37-23.42,37.6-18.41,10.6,5.98,13.7,44.1,10.93,55.14h-.04Z"/>
  </g>
</svg>