<?xml version="1.0" encoding="UTF-8"?>
<svg id="Layer_2" data-name="Layer 2" xmlns="http://www.w3.org/2000/svg" viewBox="0 0 360 360">
  <defs>
    <style>
      .cls-1 {
        fill: #fff;
        stroke-width: 0px;
      }
    </style>
  </defs>
  <g id="Layer_1-2" data-name="Layer 1">
    <polygon class="cls-1" points="315 157.5 315 135 270 135 270 112.5 225 112.5 225 90 180 90 180 67.5 135 67.5 135 45 90 45 90 22.5 45 22.5 45 0 0 0 0 45 0 90 0 135 0 180 0 225 0 270 0 315 0 360 45 360 45 337.5 90 337.5 90 315 135 315 135 292.5 180 292.5 180 270 225 270 225 247.5 270 247.5 270 225 315 225 315 202.5 360 202.5 360 157.5 315 157.5"/>
  </g>
</svg>