<?xml version="1.0" encoding="UTF-8"?>
<svg id="Layer_2" data-name="Layer 2" xmlns="http://www.w3.org/2000/svg" viewBox="0 0 360 360">
  <defs>
    <style>
      .cls-1 {
        fill: #ed2024;
      }

      .cls-1, .cls-2 {
        stroke-width: 0px;
      }

      .cls-2 {
        fill: #fff;
      }
    </style>
  </defs>
  <g id="Layer_1-2" data-name="Layer 1">
    <polygon class="cls-1" points="337.5 0 22.5 0 22.5 22.5 0 22.5 0 337.5 22.5 337.5 22.5 360 337.5 360 337.5 337.5 360 337.5 360 22.5 337.5 22.5 337.5 0"/>
    <polygon class="cls-2" points="234 171 234 162 216 162 216 153 198 153 198 144 180 144 180 135 162 135 162 126 144 126 144 117 126 117 126 108 108 108 108 126 108 144 108 162 108 180 108 198 108 216 108 234 108 252 126 252 126 243 144 243 144 234 162 234 162 225 180 225 180 216 198 216 198 207 216 207 216 198 234 198 234 189 252 189 252 171 234 171"/>
  </g>
</svg>