<?xml version="1.0" encoding="UTF-8"?>
<svg id="Layer_2" data-name="Layer 2" xmlns="http://www.w3.org/2000/svg" viewBox="0 0 360 360">
  <defs>
    <style>
      .cls-1 {
        fill: #fff;
        stroke-width: 0px;
      }
    </style>
  </defs>
  <g id="Layer_1-2" data-name="Layer 1">
    <path class="cls-1" d="M109.31,156.15l-62.46-62.46-31.23,31.23L0,109.31l15.62-15.62L0,78.08l15.62-15.62L0,46.85l15.62-15.62L0,15.62,15.62,0l15.62,15.62L46.85,0l15.62,15.62L78.08,0l15.62,15.62L109.31,0l15.62,15.62-31.23,31.23,62.46,62.46-46.85,46.85Z"/>
    <path class="cls-1" d="M203.85,109.31l62.46-62.46-31.23-31.23L250.69,0l15.62,15.62,15.62-15.62,15.62,15.62L313.15,0l15.62,15.62L344.38,0l15.62,15.62-15.62,15.62,15.62,15.62-15.62,15.62,15.62,15.62-15.62,15.62,15.62,15.62-15.62,15.62-31.23-31.23-62.46,62.46-46.85-46.85Z"/>
    <path class="cls-1" d="M156.15,250.69l-62.46,62.46,31.23,31.23-15.62,15.62-15.62-15.62-15.62,15.62-15.62-15.62-15.62,15.62-15.62-15.62-15.62,15.62L0,344.38l15.62-15.62L0,313.15l15.62-15.62-15.62-15.62,15.62-15.62L0,250.69l15.62-15.62,31.23,31.23,62.46-62.46,46.85,46.85Z"/>
    <path class="cls-1" d="M250.69,203.85l62.46,62.46,31.23-31.23,15.62,15.62-15.62,15.62,15.62,15.62-15.62,15.62,15.62,15.62-15.62,15.62,15.62,15.62-15.62,15.62-15.62-15.62-15.62,15.62-15.62-15.62-15.62,15.62-15.62-15.62-15.62,15.62-15.62-15.62,31.23-31.23-62.46-62.46,46.85-46.85Z"/>
  </g>
</svg>