<?xml version="1.0" encoding="UTF-8"?>
<svg id="Layer_2" data-name="Layer 2" xmlns="http://www.w3.org/2000/svg" viewBox="0 0 100.44 137.72">
  <defs>
    <style>
      .cls-1 {
        fill: #8d2422;
      }

      .cls-1, .cls-2, .cls-3, .cls-4, .cls-5, .cls-6 {
        stroke-width: 0px;
      }

      .cls-2 {
        fill: #f9e2e2;
      }

      .cls-3 {
        fill: #bfa895;
      }

      .cls-4 {
        fill: #c92227;
      }

      .cls-5 {
        fill: #000;
      }

      .cls-6 {
        fill: #fefaed;
      }
    </style>
  </defs>
  <g id="Layer_1-2" data-name="Layer 1">
    <g>
      <rect class="cls-4" x="0" y="0" width="100.44" height="137.72" rx="50.22" ry="50.22"/>
      <g>
        <path class="cls-6" d="M21.12,59.09c2.17-.67,4.42-.42,6.64-.49,1.58-.05,2.31-.38,2.29-1.22-.02-1.32-1.2-1.34-2.04-1.45-2.53-.33-5.07-.72-7.62-.18-.88.18-.83-.25-.77-.88.68-6.82,4.17-12.03,9.26-16.35,4.85-4.11,10.63-5.89,16.81-6.55,6.52-.69,12.93-.15,19.04,2.38,4.24,1.75,7.66,4.67,10.69,8.07,3.22,3.61,4.92,7.86,5.4,12.65.05.55.03.7-.57.63-2.52-.33-5.04-.07-7.54.15-1.33.12-2.17.78-2.04,1.49.21,1.14,1.2,1.02,2.04,1.14,2.13.3,4.32.05,6.43.6.09.53-.16.93-.4,1.38-.53,1-1.6,1.6-1.98,2.69-1.68-.63-3.27-1.43-4.85-2.26-.45-.24-.91-.46-1.43-.23-1,.45-1.15,1.6-.21,2.22,1.01.68,2.1,1.21,3.15,1.83.51.3,1.13.47,1.46,1.03-2.79,2.06-5.71,3.89-8.97,5.12-6.59,2.49-13.4,3.26-20.37,2.46-5.51-.63-10.83-2.01-15.63-4.92-1.39-.84-2.85-1.65-3.83-3.03,1.36-1.02,2.93-1.68,4.35-2.59.46-.3.75-.7.58-1.27-.17-.56-.63-.75-1.17-.78-.6-.03-1.12.21-1.65.46-1.43.67-2.86,1.34-4.29,2.01-1.21-1.19-2.13-2.57-2.8-4.12ZM50.53,51.04c-.65,0-1.3-.02-1.95,0-.53.02-.88.34-1.01.83-.13.49,0,1.03.46,1.22,1.16.46.76,1.03.23,1.68-.43.54-.91,1.01-1.44,1.45-1.76,1.47-4.08,1.51-5.79,0-.72-.63-1.61-.83-2.26-.33-.81.61-.36,1.5.12,2.22,1.39,2.1,4.23,3.06,6.91,2.35,1.79-.47,3.11-1.6,4.14-3.09.35-.51.6-.67.98-.04.2.33.5.61.77.9,2.14,2.32,5.01,3.03,7.76,1.89,1.24-.51,2.19-1.38,2.79-2.58.28-.56.51-1.26-.12-1.66-.61-.39-1.49-.48-2.01.07-2.49,2.64-6.42,1.04-7.74-1.64-.33-.66-.31-.91.39-1.15.6-.21.72-.77.62-1.35-.11-.61-.6-.76-1.13-.79-.58-.03-1.15,0-1.73,0ZM44.32,48.36c0-.92-.28-1.7-.67-2.43-1.93-3.61-5.04-5.03-8.98-4.6-3.64.4-5.97,2.59-7.25,5.95-.29.77-.43,1.56.5,2.06.81.44,1.8.25,2.37-.52.54-.73,1.15-1.39,1.82-1.99,2.18-1.99,5.13-1.96,7.3.03.64.59,1.12,1.3,1.61,2.02.63.94,1.6.82,2.53.63.64-.13.85-.61.77-1.16ZM64.83,41.3c-4.34-.02-7.22,2.56-8.3,5.96-.2.63-.45,1.4.15,1.92.62.54,1.4.41,2.16.21.48-.12.66-.47.9-.83,1.86-2.89,4.97-4.45,8.22-2.05.79.58,1.44,1.3,2.05,2.06.22.28.44.58.72.79.73.56,1.52.38,2.23-.03.68-.4.41-1.06.24-1.64-1.11-3.81-4.45-6.36-8.37-6.4ZM75.84,49.91c-2.49.5-4.89,1.28-7.09,2.6-.52.31-.66.85-.43,1.42.24.61.76.72,1.34.63.28-.05.54-.18.82-.27,2.09-.71,4.14-1.59,6.34-1.93.39-.06.92.03,1.06-.35.15-.39-.13-.82-.4-1.17-.42-.52-.9-.93-1.63-.92ZM24.47,49.97c-.94.09-1.3.88-1.61,1.69-.18.47-.04.74.54.67.58-.07,1.13.13,1.67.32,1.81.65,3.65,1.23,5.45,1.91.84.31,1.3-.03,1.64-.71.36-.73-.07-1.16-.65-1.47-.5-.27-1.03-.5-1.55-.74-1.72-.79-3.48-1.48-5.5-1.67Z"/>
        <path class="cls-6" d="M83.68,104.63c-.89-.23-1.44-.84-2.14-1.16-.5-.4-1-.8-1.5-1.19-.48-.38-.65-.25-.7.35-.09,1.18-.26,2.36-.64,3.49-1.05,3.08-3.08,5.42-5.51,7.47-.5.43-1.01.7-1.66.85-1.34.29-2.71.56-4.14,1.29,1.84.87,3.56,1.58,4.43,3.36.34,1.42.25,2.85.03,4.28-.03.21-.07.47-.21.59-.4.36-.9.79-1.41.64-.35-.11-.28-.75-.33-1.16-.08-.66.12-1.37-.38-1.97-.7-.85-1.19-.85-1.67.14-.59,1.21-.8,2.53-.92,3.86-.02.24.07.52-.31.55-.31-.18-.49-.49-.45-.81.15-1.14-.51-2.01-.95-2.95-.68-.79-1.18-.81-1.91.03-1.04,1.2-1.47,2.69-1.9,4.17-.14.5-.14,1.06-.68,1.63-.02-1.36.35-2.47.64-3.57,1.82-7.04,3.12-14.2,5.23-21.17.89-2.95,2.03-5.81,4.04-8.22.31-.38.18-.6-.17-.88-.88-.71-2.01-.76-2.99-.1-1.11.75-1.81,1.83-2.42,3-2.24,4.31-3.4,8.97-4.54,13.64-.64,2.62-1.25,5.24-1.9,7.85-.13.51-.36.98-.54,1.47-1.2.43-2.21,1.2-3.21,1.92-2.88,2.06-5.7,2.14-8.69.2-1.21-.79-2.33-1.8-3.82-2.12-1.1-2.68-1.54-5.52-2.19-8.32-1.13-4.83-2.3-9.65-4.55-14.12-.62-1.22-1.34-2.38-2.39-3.3-.71-.63-1.51-.82-2.4-.65-1.26.23-1.53.93-.76,1.9,2.35,2.94,3.52,6.42,4.43,9.98,1.38,5.42,2.63,10.87,3.93,16.3.21.86.43,1.72.65,2.57-.05.3.1.65-.24.88-.49-1-.77-2.13-1.57-2.96-.86-.9-1.32-.91-2.11-.08-.3.26-.29.59-.35.96-.11.72-.37,1.42-1.37,1.2-.32-.95-.38-1.97-.85-2.88-.51-.99-.97-1.03-1.64-.15-.46.6-.56,1.29-.6,2.03-.02.38-.14.76-.23,1.16-1.18-.43-1.8-1.15-1.7-2.44.07-.97.01-1.94,0-2.91,1-1.44,2.24-2.58,3.96-3.1.17-.05.35-.17.3-.39-.05-.24-.29-.32-.49-.37-1.31-.34-2.56-.97-3.97-.93-.24,0-.5.06-.64-.25-.26-.58-.82-.88-1.28-1.27-2.97-2.53-4.79-5.67-5.28-9.56-.05-.41.06-1.01-.34-1.17-.52-.2-.89.33-1.26.65-.15.13-.35.27-.31.53-.72.21-1.26.83-2.17.96.69-2.12,1.28-4.21,1.68-6.34,1.08-5.8,3.62-10.87,7.45-15.33.5-.59.82-.75,1.59-.29,3.59,2.17,7.53,3.33,11.66,3.94.32.05.64.13.96.14.97.03,1.46.51,1.89,1.42,1.5,3.19,4.07,5.07,7.62,5.13,3.76.07,6.69-1.63,8.39-5.04.57-1.14,1.27-1.52,2.43-1.67,4.31-.56,8.45-1.69,12.22-3.93.71-.42,1.03-.23,1.5.32,4.06,4.68,6.66,10.04,7.6,16.18.3,1.95,1.12,3.74,1.73,5.72Z"/>
        <path class="cls-3" d="M26.1,65.39c.98,1.38,2.44,2.19,3.83,3.03,4.8,2.91,10.12,4.29,15.63,4.92,6.97.8,13.78.03,20.37-2.46,3.26-1.23,6.18-3.07,8.97-5.12.48.08.85.38,1.24.62,1.58,1,1.62,1.08.45,2.59-1.82,2.34-4.33,3.79-6.93,5.04-3.85,1.85-7.9,3.05-12.15,3.55-.45.05-.72-.02-1.03-.33-3.31-3.27-8.78-3.6-12.25-.16-.42.41-.86.49-1.44.42-6.21-.83-11.94-2.86-16.91-6.78-.85-.67-1.6-1.45-2.25-2.33-.44-.6-.47-1.07.26-1.49.77-.45,1.49-1,2.24-1.5Z"/>
        <path class="cls-6" d="M65.06,31.55c-.61.49-2.75.41-3.29-.12-.4-.39-.01-.66.18-.92.97-1.27,2.13-2.34,3.42-3.29,2.28-1.68,4.71-3.05,7.5-3.66,1.78-.39,2.83.1,3.72,1.73,1.1,2.01,1.66,4.21,2.06,6.44.52,2.97.49,5.94-.13,8.9-.11.52-.22,1.05-.65,1.67-.57-1.24-1.86-1.92-1.91-3.38.32-2.18.14-4.36-.16-6.52-.21-1.53-.45-3.06-1.2-4.45-.63-1.18-1.35-1.53-2.58-1.08-1.59.58-3.09,1.35-4.36,2.5h0c-.46.17-.79.5-1.08.87h0c-.58.36-1.08.79-1.52,1.31Z"/>
        <path class="cls-3" d="M42.38,120.13c1.49.32,2.61,1.33,3.82,2.12,2.99,1.94,5.81,1.86,8.69-.2,1.01-.72,2.02-1.5,3.21-1.92-.6,2.77-1.44,5.49-1.91,8.29-.09.52-.52.43-.85.47-3.37.4-6.74.49-10.12.1-.38-.04-.81-.09-.93-.58-.64-2.76-1.28-5.51-1.92-8.27Z"/>
        <path class="cls-6" d="M24.7,39.04c-.4,1.03-1.34,1.66-1.93,2.56-.29.44-.48.08-.6-.28-.41-1.21-.5-2.47-.59-3.71-.28-3.81.37-7.5,1.69-11.07.14-.37.28-.75.48-1.08,1.26-2.09,2.31-2.42,4.24-1.81,4.07,1.3,7.52,3.51,10.33,6.72.75.86.66,1.07-.47,1.37-1.03.27-2.05.42-2.85-.55-1.88-1.7-3.88-3.22-6.26-4.17-1.45-.58-2.44-.28-3,1.14-1.3,3.27-1.71,6.67-1.17,10.17.04.22.07.44.11.65,0,0-.03.05-.03.05h.06Z"/>
        <path class="cls-3" d="M71.82,119.1c-.86-1.78-2.59-2.49-4.43-3.36,1.43-.72,2.8-.99,4.14-1.29.65-.14,1.16-.42,1.67-.85,2.43-2.06,4.46-4.4,5.51-7.47.38-1.13.56-2.31.64-3.49.04-.59.22-.73.7-.35.5.4,1,.79,1.5,1.19,0,2.2.02,4.4.02,6.59,0,1.32-.43,1.63-1.63,1.08-.86-.39-1.27-.33-1.52.67-.14.56-.61,1.05-.98,1.54-.37.49-.25.68.33.73.46.04.91.16,1.35.24,0,.1.01.15,0,.18q-.96,2.07-3.11,1.47c-.5-.14-1-.32-1.77-.56.91,1.41,1.55,2.69,2.7,3.57.69.52.57.86-.04,1.28-.21.14-.37.34-.57.5-.4.31-.77.78-1.22.86-.68.12-.49-.73-.83-1.05-.71-.67-1.5-1.21-2.45-1.47Z"/>
        <path class="cls-3" d="M19.16,103.42c-.05-.26.15-.4.3-.53.37-.32.74-.85,1.26-.65.4.16.29.77.34,1.17.49,3.9,2.32,7.04,5.28,9.57.45.39,1.01.7,1.28,1.27.14.31.41.26.64.25,1.4-.03,2.65.59,3.97.94.2.05.44.12.49.37.05.22-.13.33-.3.39-1.72.52-2.96,1.67-3.96,3.1-1.07.17-1.99.6-2.44,1.63-.33.75-.7.67-1.19.22-.16-.14-.34-.27-.51-.39-1.46-1.07-1.41-1.03-.25-2.33.73-.82,1.27-1.81,1.99-2.87-.97.27-1.82.42-2.6.74-.79.33-1.19.06-1.54-.61-.23-.44-.52-.85-.77-1.26.48-.53,1.52-.09,1.64-.78.09-.49-.44-1.1-.69-1.65-.68-1.53-.35-1.4-1.97-.84-.66.23-1.13.25-1.17-.64-.1-2.37-.25-4.74.21-7.1Z"/>
        <path class="cls-6" d="M44.95,83.32c.09-2.38,2.27-4.67,4.57-4.79,3.07-.16,5.49,1.56,5.87,4.19.05.34.11.69.17,1.03-.37,0-.72.02-.87.44-.34-.13-.53.15-.76.29-2.83,1.78-5.41,1.69-8.12-.3-.33-.24-.68-.46-.85-.86Z"/>
        <path class="cls-4" d="M60.21,83.35c-1.24-.07-.81-1.26-1.06-1.94-.26-.71.46-.64.89-.69,4-.47,7.78-1.64,11.41-3.36.16-.08.32-.16.49-.23.4-.15.78-.16,1.09.18.36.4.09.75-.14,1.06-.59.78-1.34,1.41-2.21,1.86-3.26,1.68-6.74,2.63-10.47,3.12Z"/>
        <path class="cls-4" d="M39.92,83.35c-4.24-.88-8.58-1.52-12-4.59-.19-.17-.36-.36-.51-.56-.27-.34-.38-.72-.09-1.09.26-.33.64-.31.99-.14.94.45,1.86.95,2.82,1.36,2.93,1.27,5.98,2.07,9.16,2.32,1.05.08,1.01.64.93,1.37-.09.76-.18,1.5-1.28,1.32Z"/>
        <path class="cls-3" d="M54.68,84.19c.15-.42.5-.44.87-.44.26.97-.12,1.79-.58,2.61-1.22,2.2-3.96,3.49-6.06,2.86-2.64-.79-4.2-3.12-3.96-5.9.17.4.52.62.85.86.15,1.47,1.12,2.5,2.31,2.98,2.77,1.13,5.51-.21,6.57-2.98Z"/>
        <path class="cls-3" d="M21.12,59.09c.68,1.55,1.6,2.93,2.8,4.12-2.59,1.9-2.86,1.81-3.68-1.24-.13-.48-.21-.98-.31-1.47-.27-1.3-.19-1.4,1.18-1.41Z"/>
        <path class="cls-3" d="M76.78,63.16c.38-1.1,1.44-1.7,1.98-2.69.24-.45.49-.86.4-1.38,1.54,0,1.58.07,1.37,1.57-.17,1.19-.58,2.29-1.08,3.37-.24.52-.56.63-1.01.28-.53-.41-1.3-.48-1.65-1.14Z"/>
        <path class="cls-2" d="M33.45,124.48c1,.22,1.26-.48,1.37-1.2.06-.36.05-.7.35-.96-.09,1.46.16,2.9.21,4.37q-1.73-.43-1.92-2.21Z"/>
        <path class="cls-3" d="M65.22,122.27c.45.94,1.1,1.81.95,2.95-.04.32.14.62.45.81-.3.6-.93.56-1.45.72-.34.11-.38-.18-.32-.36.48-1.34.02-2.77.36-4.12Z"/>
        <polygon class="cls-1" points="66.58 30.23 66.58 30.23 66.58 30.23 66.58 30.23"/>
        <path class="cls-2" d="M38.84,125.36c.34-.22.19-.58.24-.88.35.86.54,1.74.36,2.99-.26-.9-.43-1.51-.6-2.12Z"/>
        <polygon class="cls-4" points="24.7 39.04 24.64 39.03 24.68 38.98 24.7 39.04"/>
        <path class="cls-5" d="M50.53,51.04c.58,0,1.16-.02,1.73,0,.53.02,1.02.18,1.13.79.1.57-.01,1.14-.62,1.35-.7.24-.72.49-.39,1.15,1.32,2.67,5.25,4.28,7.74,1.64.52-.56,1.41-.46,2.01-.07.63.4.4,1.1.12,1.66-.61,1.2-1.55,2.07-2.79,2.58-2.75,1.14-5.61.43-7.76-1.89-.27-.29-.57-.57-.77-.9-.38-.63-.63-.47-.98.04-1.03,1.49-2.34,2.61-4.14,3.09-2.68.71-5.52-.25-6.91-2.35-.48-.72-.93-1.61-.12-2.22.66-.5,1.54-.3,2.26.33,1.7,1.5,4.02,1.47,5.79,0,.53-.44,1.01-.92,1.44-1.45.52-.65.93-1.22-.23-1.68-.47-.19-.59-.72-.46-1.22.13-.49.48-.81,1.01-.83.65-.02,1.3,0,1.95,0Z"/>
        <path class="cls-5" d="M44.32,48.36c.08.55-.13,1.02-.77,1.16-.93.2-1.9.32-2.53-.63-.48-.72-.96-1.43-1.61-2.02-2.17-2-5.12-2.02-7.3-.03-.67.61-1.28,1.27-1.82,1.99-.57.76-1.56.96-2.37.52-.93-.51-.79-1.3-.5-2.06,1.28-3.36,3.61-5.55,7.25-5.95,3.94-.43,7.05,1,8.98,4.6.39.73.67,1.5.67,2.43Z"/>
        <path class="cls-5" d="M85.59,111.21c.04-.14.09-.33.14-.55-.05.18-.09.37-.14.55ZM85.78,110.42s-.02.1-.03.15c.03-.11.05-.21.08-.31,0-.01,0-.02,0-.03.29-1.21.53-2.34.71-3.37l.27-2.07c.41-3.92-.14-7.73-1.18-11.48-1.41-5.1-3.95-9.57-7.75-13.29-.51-.5-.77-.93-.36-1.68.44-.79.44-1.6-.21-2.41-.73-.92-.54-1.98.32-2.84,3.72-3.73,6.27-8.11,6.87-13.39.51-4.48-.01-8.88-2.19-12.92-.66-1.23-.84-2.32-.48-3.68,1.51-5.76,1.41-11.48-.74-17.09-.53-1.38-1.21-2.7-2.05-3.92-1.49-2.18-3.68-2.59-6.05-2.13-4.71.9-8.8,3.13-12.31,6.36-2.69,2.47-2.65,2.43-6.21,1.97-3.3-.43-6.61-.35-9.91.18-1.46.24-2.63.09-3.84-1.12-3.66-3.64-8.02-6.22-13.12-7.36-2.98-.67-5.13.3-6.64,2.96-2.67,4.68-3.56,9.73-3.18,15.08.16,2.21.64,4.34,1.17,6.47.11.44,0,.75-.21,1.1-2.23,3.85-3.16,8.05-3.02,12.44.16,5.02,2.13,9.36,5.43,13.11.52.59,1.03,1.2,1.57,1.78,1.09,1.17,1.22,1.67.4,3.05-.56.94-.67,1.81-.11,2.73.42.68-.05,1.08-.46,1.48-2.13,2.08-3.84,4.46-5.24,7.1-1.98,3.72-3.08,7.66-3.6,11.81-.46,3.65-.22,7.25.79,10.8.08.28.15.56.21.85.02.07.03.13.05.2,0,0,0,.01,0,.02.19,1.41.99,4,1.75,6.26.96,2.85,2.76,5.34,5.16,7.14,2.99,2.24,6.27,4.14,9.86,5.7,5.38,2.33,11.02,3.48,16.85,3.74,3.59.16,7.17-.16,10.72-.85,6.88-1.32,13.2-3.95,18.86-8.05,1.46-1.06,2.85-2.17,4.16-3.34.53-.47.92-1.08,1.11-1.77.6-2.19,1.98-7.18,2.15-7.84,0,0,.3-1.17.39-1.51ZM61.95,30.51c.97-1.27,2.13-2.34,3.42-3.29,2.28-1.68,4.71-3.05,7.5-3.66,1.78-.39,2.83.1,3.72,1.73,1.1,2.01,1.66,4.21,2.06,6.44.52,2.96.49,5.94-.13,8.91-.11.52-.22,1.05-.65,1.67-.57-1.24-1.86-1.92-1.91-3.38,0-1.15-1.1-1.78-1.34-2.81-.16-.21-.32-.41-.48-.62-.57-.14-.88-.62-1.22-1.02-.8-.92-1.99-1.23-2.9-1.96-.06-.02-.12-.04-.18-.07-.75.02-1.48-.06-2.14-.45-.21-.02-.41-.03-.62-.05-.73.2-1.36-.14-2-.39-.62.49-2.75.41-3.29-.12-.4-.39-.01-.66.18-.92ZM23.27,26.53c.14-.37.28-.75.48-1.08,1.26-2.09,2.31-2.42,4.24-1.81,4.07,1.3,7.52,3.51,10.33,6.72.75.86.66,1.07-.47,1.38-1.03.27-2.05.42-2.85-.55-.05.78-.64.77-1.18.75-3.29-.11-5.74,1.46-7.81,3.85-.66.76-.83,1.77-1.45,2.54.03.22.07.44.11.65l.02.06c-.4,1.03-1.34,1.66-1.93,2.56-.29.45-.48.08-.6-.28-.41-1.21-.5-2.47-.59-3.71-.28-3.81.37-7.5,1.69-11.07ZM23.61,68.38c-.44-.6-.47-1.06.26-1.49.77-.45,1.49-1,2.24-1.5,1.36-1.02,2.93-1.68,4.35-2.59.46-.3.75-.7.58-1.27-.17-.56-.63-.75-1.17-.77-.6-.03-1.12.21-1.65.46-1.43.67-2.86,1.34-4.29,2.01-2.59,1.9-2.86,1.81-3.68-1.24-.13-.48-.21-.98-.31-1.47-.27-1.3-.19-1.39,1.18-1.41,2.18-.67,4.42-.42,6.64-.49,1.58-.05,2.31-.38,2.29-1.22-.02-1.32-1.2-1.34-2.04-1.45-2.53-.33-5.07-.72-7.62-.18-.87.18-.83-.25-.77-.88.68-6.82,4.17-12.03,9.26-16.35,4.85-4.11,10.63-5.89,16.81-6.55,6.52-.69,12.93-.15,19.04,2.38,4.23,1.75,7.66,4.67,10.69,8.07,3.22,3.61,4.93,7.86,5.4,12.65.05.55.03.7-.57.62-2.52-.33-5.04-.07-7.55.15-1.33.11-2.17.78-2.04,1.49.21,1.14,1.2,1.02,2.04,1.14,2.13.3,4.32.05,6.43.6,1.54,0,1.59.07,1.38,1.57-.17,1.19-.58,2.29-1.08,3.37-.25.52-.56.63-1.01.28-.53-.41-1.29-.48-1.65-1.14-1.67-.63-3.27-1.43-4.85-2.26-.45-.24-.91-.46-1.43-.23-1,.44-1.15,1.6-.21,2.23,1.01.67,2.1,1.21,3.15,1.83.51.3,1.13.47,1.46,1.03.48.08.85.38,1.24.62,1.58,1,1.62,1.08.45,2.59-1.82,2.34-4.33,3.79-6.93,5.04-3.85,1.85-7.9,3.05-12.15,3.55-.45.05-.72-.02-1.03-.33-3.31-3.27-8.78-3.6-12.25-.16-.42.41-.86.49-1.44.42-6.21-.83-11.94-2.86-16.91-6.78-.85-.67-1.6-1.45-2.25-2.33ZM72.89,78.37c-.59.79-1.34,1.41-2.21,1.86-3.26,1.68-6.74,2.63-10.47,3.12-1.24-.07-.81-1.26-1.06-1.94-.26-.71.46-.64.9-.69,4-.47,7.78-1.64,11.41-3.36.16-.08.32-.16.49-.23.4-.15.79-.16,1.09.18.36.4.09.75-.14,1.06ZM54.98,86.36c-1.22,2.19-3.96,3.49-6.06,2.86-2.64-.79-4.2-3.12-3.96-5.9.09-2.38,2.27-4.67,4.57-4.79,3.07-.16,5.49,1.56,5.86,4.19.05.34.11.69.17,1.03.26.97-.12,1.79-.57,2.61ZM41.21,82.03c-.09.76-.18,1.5-1.28,1.32-4.23-.88-8.58-1.52-12-4.59-.19-.17-.36-.36-.51-.56-.27-.34-.38-.72-.09-1.09.26-.33.64-.31.99-.14.94.45,1.86.95,2.82,1.36,2.93,1.26,5.98,2.07,9.16,2.32,1.05.08,1.01.64.93,1.37ZM81.55,103.48c0,2.2.02,4.4.02,6.59,0,1.32-.43,1.63-1.63,1.08-.85-.39-1.27-.33-1.52.67-.14.56-.62,1.05-.98,1.54-.37.49-.25.67.33.73.46.04.91.16,1.35.24,0,.1.01.15,0,.18q-.96,2.06-3.11,1.47c-.5-.14-1-.31-1.77-.56.91,1.41,1.55,2.7,2.7,3.57.69.52.57.86-.04,1.28-.21.14-.37.34-.57.5-.4.31-.78.78-1.22.86-.68.12-.49-.74-.83-1.05-.71-.67-1.5-1.2-2.45-1.47.34,1.42.25,2.85.03,4.28-.03.21-.07.47-.21.59-.4.36-.9.79-1.41.64-.35-.11-.28-.75-.33-1.16-.08-.67.12-1.37-.38-1.97-.7-.85-1.19-.85-1.67.14-.59,1.21-.8,2.53-.92,3.86-.02.24.07.52-.31.55-.3.61-.93.56-1.45.72-.34.11-.38-.18-.32-.36.47-1.34.02-2.77.36-4.12-.68-.79-1.18-.81-1.91.03-1.04,1.2-1.47,2.69-1.9,4.18-.14.5-.14,1.05-.68,1.62-.02-1.36.35-2.47.64-3.57,1.82-7.04,3.13-14.2,5.23-21.17.89-2.95,2.03-5.81,4.04-8.22.31-.38.18-.6-.17-.88-.88-.7-2.01-.76-2.99-.1-1.11.75-1.81,1.83-2.41,2.99-2.24,4.31-3.4,8.97-4.54,13.64-.64,2.62-1.26,5.24-1.91,7.85-.13.51-.36.98-.54,1.47-.6,2.77-1.44,5.48-1.91,8.28-.09.52-.52.43-.85.47-3.37.41-6.74.49-10.12.1-.38-.04-.81-.09-.93-.58-.64-2.76-1.28-5.51-1.92-8.27-1.1-2.68-1.54-5.52-2.19-8.32-1.13-4.83-2.3-9.65-4.55-14.12-.62-1.22-1.33-2.38-2.39-3.3-.71-.62-1.51-.82-2.41-.65-1.26.23-1.53.93-.76,1.89,2.35,2.94,3.52,6.42,4.43,9.98,1.38,5.42,2.63,10.87,3.93,16.3.21.86.43,1.71.65,2.57.35.86.54,1.74.36,3-.26-.9-.43-1.51-.6-2.12-.49-1.01-.76-2.13-1.57-2.96-.86-.9-1.32-.91-2.11-.08-.09,1.46.16,2.91.2,4.37q-1.73-.43-1.92-2.21c-.32-.95-.38-1.97-.85-2.88-.51-.99-.96-1.02-1.64-.15-.46.61-.56,1.29-.6,2.03-.02.38-.15.76-.23,1.16-1.18-.44-1.8-1.16-1.7-2.44.08-.96.01-1.94,0-2.91-1.06.17-1.99.6-2.44,1.63-.33.75-.69.67-1.2.22-.16-.14-.34-.27-.51-.39-1.47-1.07-1.41-1.03-.25-2.33.73-.82,1.27-1.81,1.99-2.87-.97.27-1.82.42-2.59.74-.79.33-1.2.06-1.54-.61-.23-.44-.52-.85-.77-1.26.49-.53,1.52-.08,1.64-.78.09-.49-.44-1.1-.69-1.65-.68-1.53-.35-1.4-1.97-.84-.66.23-1.13.25-1.17-.64-.1-2.37-.25-4.75.21-7.1-.73.21-1.26.83-2.17.97.69-2.12,1.28-4.21,1.68-6.34,1.08-5.8,3.62-10.87,7.45-15.33.51-.59.82-.75,1.59-.29,3.59,2.16,7.53,3.33,11.66,3.94.32.05.64.13.96.14.97.03,1.46.51,1.88,1.42,1.5,3.19,4.07,5.07,7.62,5.14,3.76.07,6.69-1.63,8.39-5.04.57-1.13,1.27-1.52,2.43-1.67,4.31-.56,8.45-1.69,12.22-3.93.71-.42,1.03-.23,1.5.32,4.06,4.68,6.66,10.04,7.6,16.18.3,1.95,1.12,3.74,1.73,5.72-.89-.24-1.44-.84-2.14-1.16ZM85.59,111.21c.04-.14.09-.33.14-.55-.05.18-.09.37-.14.55ZM85.78,110.42s-.02.1-.03.15c.03-.11.05-.21.08-.31-.02.06-.03.11-.05.17Z"/>
        <path class="cls-5" d="M64.83,41.3c3.92.03,7.26,2.58,8.37,6.4.17.58.44,1.24-.24,1.64-.7.41-1.49.59-2.23.03-.28-.21-.5-.52-.72-.79-.61-.76-1.27-1.48-2.05-2.06-3.25-2.4-6.36-.84-8.22,2.05-.24.37-.42.71-.9.83-.76.19-1.55.33-2.16-.21-.59-.52-.35-1.3-.15-1.92,1.09-3.41,3.96-5.98,8.3-5.96Z"/>
        <path class="cls-5" d="M75.84,49.91c.74-.01,1.22.4,1.63.92.28.35.55.78.4,1.17-.15.38-.68.29-1.06.35-2.2.34-4.25,1.22-6.34,1.93-.27.09-.54.22-.82.27-.57.09-1.09-.02-1.34-.63-.23-.57-.09-1.11.43-1.42,2.2-1.32,4.6-2.09,7.09-2.6Z"/>
        <path class="cls-5" d="M24.47,49.97c2.02.18,3.78.87,5.5,1.67.52.24,1.05.47,1.55.74.58.32,1.01.74.65,1.47-.34.68-.8,1.03-1.64.71-1.8-.67-3.64-1.26-5.45-1.91-.55-.19-1.09-.39-1.67-.32-.58.07-.73-.2-.54-.67.31-.81.67-1.6,1.61-1.69Z"/>
        <polygon class="cls-1" points="66.58 30.23 66.58 30.23 66.58 30.23 66.58 30.23"/>
        <path class="cls-5" d="M54.68,84.19c-1.06,2.76-3.8,4.11-6.57,2.98-1.19-.49-2.15-1.51-2.31-2.98,2.71,1.98,5.29,2.07,8.12.3.23-.14.42-.42.76-.29Z"/>
        <path class="cls-4" d="M24.53,39.37c-.33-.22-.31-1.08-.35-1.53-.09-3.45.25-7.09,1.77-10.2.94-1.77,2.91-1.11,4.26-.33,1.62.94,3.2,2.04,4.48,3.46,1.4,1.56,1.67,1.13-.1,1.57-.58.14-1.28.27-1.88.37-2.64.41-4.92,2.1-6.61,4.4-.42.57-.76,1.28-1.11,1.86-.17.28-.32.43-.44.4h-.01Z"/>
      </g>
      <path class="cls-4" d="M76.09,38.9c-.06,0-.16-.13-.29-.36-.45-.82-.92-1.71-1.52-2.38-2.39-2.53-4.15-3.54-7.61-3.97-.82-.09-2.02-.33-1.09-1.26,1.81-1.5,5.72-5.08,8.16-3.99,2.3,1.3,2.97,9.56,2.37,11.96h0Z"/>
    </g>
  </g>
</svg>