<?xml version="1.0" encoding="UTF-8"?>
<svg id="Layer_2" data-name="Layer 2" xmlns="http://www.w3.org/2000/svg" version="1.1" viewBox="0 0 267.8 360">
  <defs>
    <style>
      .cls-1 {
        fill: #fff;
        stroke-width: 0px;
      }
    </style>
  </defs>
  <polygon class="cls-1" points="255.2 347.4 267.8 347.4 267.8 315 267.8 270 267.8 225 267.8 180 267.8 135 267.8 90 267.8 45 267.8 12.6 255.2 12.6 255.2 0 222.8 0 190.4 0 190.4 12.6 177.8 12.6 177.8 45 177.8 90 177.8 135 177.8 180 177.8 225 177.8 270 177.8 315 177.8 347.4 190.4 347.4 190.4 360 222.8 360 255.2 360 255.2 347.4"/>
  <polygon class="cls-1" points="77.4 347.4 90 347.4 90 315 90 270 90 225 90 180 90 135 90 90 90 45 90 12.6 77.4 12.6 77.4 0 45 0 12.6 0 12.6 12.6 0 12.6 0 45 0 90 0 135 0 180 0 225 0 270 0 315 0 347.4 12.6 347.4 12.6 360 45 360 77.4 360 77.4 347.4"/>
</svg>