<?xml version="1.0" encoding="UTF-8"?>
<svg id="Layer_2" data-name="Layer 2" xmlns="http://www.w3.org/2000/svg" viewBox="0 0 512 512">
  <defs>
    <style>
      .cls-1 {
        fill: #fff;
        stroke-width: 0px;
      }
    </style>
  </defs>
  <g id="Layer_1-2" data-name="Layer 1">
    <path class="cls-1" d="M478.71,222v-33.1h-33.13v-66.56h32.92v-55.22h-33.45v-.17h-.15v-33.46h-55.6v32.97h-66.58v-33.5h-32.72V0h-68v33.29h-33.1v33.13h-66.58v-32.92h-55.23v33.45h-.15v.17h-33.45v55.59h32.96v66.58h-33.49v32.71H0v68h33.29v33.11h33.12v66.57h-32.91v55.23h33.44v.15h.17v33.45h55.6v-32.96h66.57v33.49h32.72v32.96h68v-33.28h33.1v-33.13h66.56v32.92h55.22v-33.45h.17v-.15h33.46v-55.61h-32.97v-66.58h33.5v-32.72h32.96v-68h-33.29ZM345.06,311.97h-.11v.11h-32.87v32.88h-.11v.1h-111.94v-.1h-.11v-32.88h-32.88v-.11h-.1v-111.94h.1v-.1h32.88v-32.88h.11v-.11h111.94v.11h.11v32.88h32.87v.1h.11v111.94Z"/>
  </g>
</svg>