<?xml version="1.0" encoding="UTF-8"?>
<svg id="Layer_2" data-name="Layer 2" xmlns="http://www.w3.org/2000/svg" viewBox="0 0 360 360">
  <defs>
    <style>
      .cls-1 {
        fill: #fff;
        stroke-width: 0px;
      }
    </style>
  </defs>
  <g id="Layer_1-2" data-name="Layer 1">
    <g id="Layer_1-2" data-name="Layer 1-2">
      <path class="cls-1" d="M109.31,156.13l-62.46-62.45-31.23,31.23L0,109.3l15.62-15.62L0,78.07l15.62-15.62L0,46.84l15.62-15.62L0,15.62,15.62,0l15.62,15.62L46.85,0l15.62,15.62L78.08,0l15.62,15.62L109.31,0l15.62,15.62-31.23,31.23,62.46,62.45-46.85,46.84h0Z"/>
      <path class="cls-1" d="M203.85,109.3l62.46-62.45-31.23-31.23,15.61-15.62,15.62,15.62,15.62-15.62,15.62,15.62,15.6-15.62,15.62,15.62,15.61-15.62,15.62,15.62-15.62,15.62,15.62,15.62-15.62,15.62,15.62,15.62-15.62,15.62,15.62,15.62-15.62,15.62-31.23-31.23-62.46,62.45-46.85-46.84v-.03Z"/>
      <path class="cls-1" d="M156.15,250.66l-62.46,62.45,31.23,31.23-15.62,15.62-15.62-15.62-15.62,15.62-15.62-15.62-15.62,15.62-15.62-15.62-15.62,15.62-15.58-15.62,15.62-15.62-15.62-15.61,15.62-15.62-15.62-15.62,15.62-15.62-15.62-15.6,15.62-15.62,31.23,31.23,62.46-62.45,46.85,46.84h-.01Z"/>
      <path class="cls-1" d="M250.69,203.83l62.46,62.45,31.23-31.23,15.62,15.62-15.62,15.62,15.62,15.62-15.62,15.62,15.62,15.62-15.62,15.62,15.62,15.62-15.62,15.62-15.62-15.62-15.62,15.62-15.62-15.62-15.62,15.62-15.62-15.62-15.62,15.62-15.62-15.62,31.23-31.23-62.46-62.45,46.85-46.84.03-.03Z"/>
    </g>
  </g>
</svg>